<svg id="cartoon-ethan" xmlns="http://www.w3.org/2000/svg" xmlns:xlink="http://www.w3.org/1999/xlink" viewBox="0 0 3733.35 4200.89"><defs><style>.cls-1,.cls-18,.cls-7,.cls-8,.cls-9{fill:none;}.cls-2{fill:#dc9c59;}.cls-13,.cls-14,.cls-16,.cls-17,.cls-18,.cls-2,.cls-4,.cls-7,.cls-8,.cls-9{stroke:#000;}.cls-14,.cls-16,.cls-17,.cls-18,.cls-2,.cls-20,.cls-21,.cls-4,.cls-7,.cls-8,.cls-9{stroke-miterlimit:10;}.cls-2,.cls-21,.cls-4,.cls-9{stroke-width:35px;}.cls-19,.cls-3{opacity:0.1;}.cls-4{fill:#892727;}.cls-5{clip-path:url(#clip-path);}.cls-11,.cls-6{opacity:0.4;}.cls-20,.cls-7{stroke-width:10px;}.cls-13,.cls-14,.cls-17,.cls-8{stroke-width:5px;}.cls-10,.cls-12,.cls-16{fill:#fff;}.cls-10,.cls-15{opacity:0.08;}.cls-13,.cls-14{fill:#d37a53;}.cls-13{stroke-linejoin:bevel;}.cls-17{fill:#21150c;}.cls-18{stroke-width:15px;}.cls-20,.cls-21{fill:#0f0f0f;stroke:#070707;}.cls-22{fill:#070707;}</style><clipPath id="clip-path" transform="translate(-133.32 -383.72)"><path class="cls-1" d="M1038.85,2824.07s401.4-173.51,416.94-230.48,62.15-181.28,38.85-448,90.64-308.17,90.64-308.17l1160.18,398.81s-207.18,611.17-181.28,823.52c0,0,209.5,24.85,435.07,137.26C2043,3839.06,1412.54,3452.93,1038.85,2824.07Z"/></clipPath></defs><g id="NECK"><path id="NECK-2" data-name="NECK" class="cls-2" d="M865.87,3028.63c107.35-112.91,534.64-249.41,550.18-306.38s106.89-314.94,83.59-581.68,90.64-308.17,90.64-308.17l1160.18,398.81s-207.18,611.17-181.28,823.52c0,0,357.66,70.77,435.07,137.26,114,93.72,252.08,457,207.07,543.9-164.56,317.78-2114.85,91.47-2321.87-119.6C780.57,3505.28,800.14,3161.65,865.87,3028.63Z" transform="translate(-133.32 -383.72)"/><g id="SHADOW_SHIRT_" data-name="SHADOW (SHIRT)" class="cls-3"><path d="M1466.09,3000.56c5.72,9.77,11.35,19.31,17.86,28.3l2.39,3.38c.81,1.12,1.54,2.28,2.41,3.36l5,6.58,2.49,3.28c.83,1.09,1.74,2.14,2.6,3.2l5.24,6.37a553.31,553.31,0,0,0,45.17,47.69l12,11.14c4.12,3.61,8.18,7.27,12.26,10.9s8.39,7,12.52,10.62l12.71,10.39q25.59,20.55,52.57,39.35t55,36l7,4.24c2.35,1.42,4.68,2.87,7.07,4.21l7.11,4.13c2.37,1.37,4.71,2.82,7.12,4.13l14.39,8,14.53,7.78q29.21,15.27,59.66,28.34c2.52,1.16,5.09,2.15,7.65,3.2s5.13,2.06,7.69,3.14,5.16,2,7.75,3,5.19,2,7.78,3,5.25,1.84,7.86,2.81l7.9,2.82c5.29,1.8,10.65,3.43,16,5.32-5.63-.19-11.29-.45-16.93-.88-5.61-.63-11.28-1.12-16.88-2-2.79-.43-5.6-.86-8.39-1.34s-5.62-.89-8.39-1.49-5.55-1.16-8.33-1.75-5.58-1.15-8.32-1.87A473.71,473.71,0,0,1,1753.8,3275a603.11,603.11,0,0,1-119.61-65.29c-37.28-26.12-72-56.21-101.94-90.76a375.9,375.9,0,0,1-40.17-55.49l-4.21-7.47c-.69-1.25-1.42-2.47-2.07-3.74l-1.92-3.84-3.79-7.68c-.65-1.26-1.19-2.59-1.75-3.9l-1.67-4A187.49,187.49,0,0,1,1466.09,3000.56Z" transform="translate(-133.32 -383.72)"/></g><path id="SHIRT" class="cls-4" d="M481.61,3210.9c111.12-74.89,797.57-434.57,918.8-480.21-22.82,209.89,50.08,414.81,308.72,539.11,267.91,128.75,448.46,105.8,625.3,21.85,181.16-86,257.7-191.28,272.41-236.21,60.44-2.64,411.42,129.91,488.56,162.1,196.17,81.87,343.91,60.16,486.54,272.05,204.83,304.28,247.16,585.37,267.18,873.05,17.05,245.15-3545.94,238.95-3597.18,141.8-155.12-294.08-96-429.71-55.54-761.25C215.72,3584.9,291.73,3338.86,481.61,3210.9Z" transform="translate(-133.32 -383.72)"/><g id="SHADOW_HEAD_" data-name="SHADOW (HEAD)"><g class="cls-5"><path class="cls-6" d="M2492.4,3296.84c-236.94,16.21-308.53-100.27-540.11-275.66-288.34-218.39-329.44-518.08-351.67-736.47-44.59,47.11-177.14,91.56-223.76-2.68-349.16-705.71,140-541.49,145-501.22-154.87-448.13-54.37-557,2.73-684.35,146.09-325.64,443-407.94,899.38-365.79,636,62.46,866.35,515,835.34,1171.18-58.24,252.47-6.22,425.21-104.44,624.79-137.81,249.66-206.85,349.88-346.19,509.89C2710.26,3184.05,2691.84,3277.57,2492.4,3296.84Z" transform="translate(-133.32 -383.72)"/></g></g><path id="COLLAR" class="cls-7" d="M1310.91,2761.58c-6.44,105.35,18.46,374.7,248.3,520.36,237.85,150.72,501.09,215.29,807.95,75,237.15-108.45,257.49-204.59,308.68-275.89" transform="translate(-133.32 -383.72)"/><g id="COLLAR_LINES" data-name="COLLAR LINES"><line class="cls-8" x1="1177.15" y1="2429.8" x2="1263.59" y2="2394.49"/><line class="cls-8" x1="1179.81" y1="2468.94" x2="1263.26" y2="2429.8"/><line class="cls-8" x1="1185.23" y1="2511.06" x2="1263.26" y2="2468.94"/><line class="cls-8" x1="1193.57" y1="2557.57" x2="1269.73" y2="2510.06"/><line class="cls-8" x1="1207.11" y1="2604.64" x2="1279.75" y2="2553.35"/><line class="cls-8" x1="1225.01" y1="2654.44" x2="1293.24" y2="2596.7"/><line class="cls-8" x1="1247.48" y1="2702.91" x2="1309.56" y2="2635.76"/><line class="cls-8" x1="1273.6" y1="2747.62" x2="1329.77" y2="2673.67"/><line class="cls-8" x1="1307.4" y1="2793.73" x2="1356" y2="2712.96"/><line class="cls-8" x1="1341.18" y1="2830.81" x2="1387.26" y2="2750.71"/><line class="cls-8" x1="1381.84" y1="2866.92" x2="1415.9" y2="2779.53"/><line class="cls-8" x1="1419.34" y1="2893.87" x2="1450.66" y2="2809.39"/><line class="cls-8" x1="1458.8" y1="2918.42" x2="1489.31" y2="2837.14"/><line class="cls-8" x1="1503.31" y1="2943.69" x2="1528.05" y2="2861.89"/><line class="cls-8" x1="1549.38" y1="2966.99" x2="1570.5" y2="2883.5"/><line class="cls-8" x1="1599.81" y1="2989.4" x2="1617.36" y2="2905.15"/><line class="cls-8" x1="1649.71" y1="3008.23" x2="1664.56" y2="2924.49"/><line class="cls-8" x1="1693.93" y1="3022.09" x2="1706.97" y2="2939.6"/><line class="cls-8" x1="1740.79" y1="3034.67" x2="1749.62" y2="2952.44"/><line class="cls-8" x1="1784.9" y1="3042.11" x2="1792.89" y2="2962.89"/><line class="cls-8" x1="1830.04" y1="3047.77" x2="1834.91" y2="2970.36"/><line class="cls-8" x1="1877.95" y1="3050.66" x2="1877.95" y2="2975.11"/><line class="cls-8" x1="1924.83" y1="3050.4" x2="1921.72" y2="2976.77"/><line class="cls-8" x1="1973.47" y1="3046.9" x2="1965.21" y2="2975.11"/><line class="cls-8" x1="2024.43" y1="3039.72" x2="2011.27" y2="2969.65"/><line class="cls-8" x1="2078.51" y1="3028.21" x2="2055.32" y2="2960.83"/><line class="cls-8" x1="2127.35" y1="3014.39" x2="2097.52" y2="2949.13"/><line class="cls-8" x1="2174.48" y1="2998.02" x2="2137.66" y2="2935.17"/><line class="cls-8" x1="2224.23" y1="2977.52" x2="2179.91" y2="2917.68"/><line class="cls-8" x1="2271.48" y1="2955.19" x2="2220.96" y2="2898.22"/><line class="cls-8" x1="2319.37" y1="2930.7" x2="2264.87" y2="2875.7"/><line class="cls-8" x1="2363.88" y1="2901.95" x2="2307.95" y2="2847.88"/><line class="cls-8" x1="2405.54" y1="2871.82" x2="2345.32" y2="2820.61"/><line class="cls-8" x1="2441.26" y1="2839.06" x2="2380.28" y2="2792.53"/><line class="cls-8" x1="2475.78" y1="2799.64" x2="2410.77" y2="2763.27"/><line class="cls-8" x1="2501.02" y1="2763.27" x2="2437.53" y2="2732.66"/><line class="cls-8" x1="2524.56" y1="2724.74" x2="2458.58" y2="2702.6"/><line class="cls-8" x1="1177.73" y1="2450.02" x2="1262.16" y2="2410.14"/><line class="cls-8" x1="1176.73" y1="2413.16" x2="1263.16" y2="2377.86"/><line class="cls-8" x1="1183.14" y1="2489.26" x2="1265.36" y2="2447.59"/><line class="cls-8" x1="1188.97" y1="2534.53" x2="1265.05" y2="2488.98"/><line class="cls-8" x1="1199.57" y1="2582.37" x2="1274.38" y2="2532.76"/><line class="cls-8" x1="1215.78" y1="2630.44" x2="1285.19" y2="2574.85"/><line class="cls-8" x1="1233.88" y1="2678.5" x2="1299.59" y2="2617.91"/><line class="cls-8" x1="1260.76" y1="2725.46" x2="1318.52" y2="2654.57"/><line class="cls-8" x1="1289.62" y1="2771.51" x2="1340.91" y2="2694.1"/><line class="cls-8" x1="1323.23" y1="2813.7" x2="1371.41" y2="2732.68"/><line class="cls-8" x1="1361.02" y1="2848.2" x2="1401.05" y2="2764.92"/><line class="cls-8" x1="1400.87" y1="2880.5" x2="1434.93" y2="2793.12"/><line class="cls-8" x1="1437.77" y1="2906.61" x2="1469.55" y2="2822.31"/><line class="cls-8" x1="1480.48" y1="2932.37" x2="1508.4" y2="2850.17"/><line class="cls-8" x1="1526.78" y1="2956.92" x2="1547.52" y2="2874.02"/><line class="cls-8" x1="1575.77" y1="2980.73" x2="1593.46" y2="2896.46"/><line class="cls-8" x1="1624.26" y1="3000.14" x2="1640.9" y2="2915.7"/><line class="cls-8" x1="1672.04" y1="3015.37" x2="1685.24" y2="2931.35"/><line class="cls-8" x1="1716.94" y1="3029.81" x2="1729.35" y2="2947.23"/><line class="cls-8" x1="1763.05" y1="3040.19" x2="1772.94" y2="2958.08"/><line class="cls-8" x1="1806.79" y1="3047.92" x2="1813.2" y2="2968.55"/><line class="cls-8" x1="1854.9" y1="3051.79" x2="1857.94" y2="2972.22"/><line class="cls-8" x1="1903.82" y1="3052.15" x2="1901.78" y2="2976.63"/><line class="cls-8" x1="1949.5" y1="3051.07" x2="1944.11" y2="2975.71"/><line class="cls-8" x1="2001.09" y1="3044.53" x2="1987.88" y2="2973.48"/><line class="cls-8" x1="2051.67" y1="3033.7" x2="2034.17" y2="2964.58"/><line class="cls-8" x1="2104.35" y1="3021.22" x2="2076.04" y2="2955.82"/><line class="cls-8" x1="2152.84" y1="3004.73" x2="2117.59" y2="2942.23"/><line class="cls-8" x1="2198.02" y1="2987.83" x2="2159.8" y2="2925.82"/><line class="cls-8" x1="2247.2" y1="2966.47" x2="2201.27" y2="2907.86"/><line class="cls-8" x1="2294.7" y1="2942.6" x2="2242.79" y2="2886.89"/><line class="cls-8" x1="2341.62" y1="2915.39" x2="2287.12" y2="2860.39"/><line class="cls-8" x1="2384.95" y1="2886.96" x2="2328.13" y2="2833.83"/><line class="cls-8" x1="2424.3" y1="2854.58" x2="2361.36" y2="2806.75"/><line class="cls-8" x1="2461.07" y1="2817.78" x2="2395.12" y2="2778.62"/><line class="cls-8" x1="2489.73" y1="2782.05" x2="2424.41" y2="2746.25"/><line class="cls-8" x1="2514.35" y1="2743.48" x2="2449.51" y2="2715.85"/><line class="cls-8" x1="2534.54" y1="2709.68" x2="2467.49" y2="2691.06"/></g><path id="OUTLINE" class="cls-9" d="M481.61,3210.9c111.12-74.89,797.57-434.57,918.8-480.21-22.82,209.89,50.08,414.81,308.72,539.11,267.91,128.75,448.46,105.8,625.3,21.85,181.16-86,257.7-191.28,272.41-236.21,60.44-2.64,411.42,129.91,488.56,162.1,196.17,81.87,343.91,60.16,486.54,272.05,204.83,304.28,247.16,585.37,267.18,873.05,17.05,245.15-3545.94,238.95-3597.18,141.8-155.12-294.08-96-429.71-55.54-761.25C215.72,3584.9,291.73,3338.86,481.61,3210.9Z" transform="translate(-133.32 -383.72)"/><path class="cls-10" d="M1675.46,2649.74c-62.31-113.57-91.38-231.75-108-339.74a211.62,211.62,0,0,1-68.79,25.05c-16.49,188.17-71,344.4-82.62,387.2.71-1.65-849.84,492.27-784,498.28,144.63,13.18,805.76-316.39,805.94-311.94,3.61,89.55,258.62,240.93,355.79,290.63,0,0,11-217.75,100-226.35C1784.08,2873.78,1717.43,2761.7,1675.46,2649.74Z" transform="translate(-133.32 -383.72)"/></g><g id="HEAD"><path id="HEAD-2" data-name="HEAD" class="cls-2" d="M2395.4,3063.68c-229,15.66-298.15-96.9-521.93-266.39-278.64-211-318.35-500.65-339.83-711.68-43.1,45.53-171.18,88.47-216.24-2.59-337.4-682,135.25-523.26,140.14-484.35-149.66-433.05-52.55-538.22,2.64-661.32,141.17-314.68,428.12-394.21,869.1-353.48,614.56,60.35,837.2,497.66,807.23,1131.77-56.27,244-6,410.89-100.92,603.75-133.17,241.26-199.9,338.11-334.54,492.73C2605.93,2954.69,2588.13,3045.05,2395.4,3063.68Z" transform="translate(-133.32 -383.72)"/><path id="HIGHLIGHT_EAR_" data-name="HIGHLIGHT (EAR)" class="cls-10" d="M1332.81,2071.13c8,16.27,18.76,28.25,31.16,36.71-293.48-598.38,44.49-540.39,126.71-492.87-8.6-10.55-16.19-22.08-21.08-34C1427.48,1535.37,1010.46,1419.6,1332.81,2071.13Z" transform="translate(-133.32 -383.72)"/><g id="OUTER"><path d="M1389.58,1694.21a42.22,42.22,0,0,0-20.87-19.28,57.87,57.87,0,0,0-27.65-4.12,64.79,64.79,0,0,0-26.35,8,50.08,50.08,0,0,0-10.65,8.06,26.4,26.4,0,0,0-2.21,2.41l-1,1.24c-.34.42-.63.88-.94,1.31l-.93,1.31-.81,1.38c-.27.46-.55.88-.81,1.38l-.75,1.5a90.8,90.8,0,0,0-5.08,12.88c-1.38,4.51-2.68,9.07-3.67,13.74a226.58,226.58,0,0,0-4.37,28.38,268.45,268.45,0,0,0-1.12,28.78,254.57,254.57,0,0,0,1.93,28.7,227.12,227.12,0,0,0,5.17,28.2,202,202,0,0,0,8.78,27.17,181.11,181.11,0,0,0,12.65,25.5c1.27,2,2.5,4,3.8,6l4.07,5.84a91.91,91.91,0,0,0,9,10.51,217.41,217.41,0,0,0,22,18.63c7.79,6,15.87,11.84,23.47,18.58a83.42,83.42,0,0,1,10.62,11.17,37,37,0,0,1,7.07,14.06,28.72,28.72,0,0,1-.65,15.49,46.74,46.74,0,0,1-7.13,13.2,48.58,48.58,0,0,0,4.92-13.74,25.68,25.68,0,0,0-1.12-13.75,34.09,34.09,0,0,0-7.56-11.46,81.23,81.23,0,0,0-10.81-9.26c-15.58-11.35-33.42-20.52-48.94-34.36a105.09,105.09,0,0,1-10.89-11.4l-4.68-6.12c-1.5-2.08-2.92-4.22-4.38-6.34a177.89,177.89,0,0,1-14.6-27.07,206.19,206.19,0,0,1-10-29,238.73,238.73,0,0,1-5.69-30,260.37,260.37,0,0,1-1.84-30.43,257.4,257.4,0,0,1,1.8-30.4,212.84,212.84,0,0,1,5.68-30c2.65-9.89,5.94-19.65,11.2-29.05l1-1.75c.35-.59.77-1.18,1.16-1.76l1.19-1.75,1.31-1.63c.45-.54.87-1.1,1.34-1.61l1.43-1.52a40.43,40.43,0,0,1,3-2.86,57.19,57.19,0,0,1,13.55-8.86,70.42,70.42,0,0,1,30.61-6.62c10.39.13,20.86,2.51,29.79,7.77a45.06,45.06,0,0,1,11.73,9.84A40.88,40.88,0,0,1,1389.58,1694.21Z" transform="translate(-133.32 -383.72)"/></g><g id="INNER"><path d="M1428.71,1754.43a43.29,43.29,0,0,0-15.87-6.09,64.62,64.62,0,0,0-16.81-1,66.87,66.87,0,0,0-16.27,3.22,50.16,50.16,0,0,0-14.26,7.58,43.16,43.16,0,0,0-10.48,11.68,47.39,47.39,0,0,0-5.57,14.62l-.39,1.94c-.13.65-.21,1.36-.31,2-.2,1.37-.42,2.73-.56,4.11-.35,2.75-.58,5.53-.77,8.31-.37,5.55-.39,11.14-.23,16.72a186.15,186.15,0,0,0,4,33.12,142.88,142.88,0,0,0,4.34,15.91,101.32,101.32,0,0,0,6.27,14.88,64.22,64.22,0,0,0,8.65,12.81,36.12,36.12,0,0,0,11.24,8.73,11.46,11.46,0,0,0,1.58.66l1.58.63c1.09.28,2.17.62,3.28.86l1.68.25.84.14.21,0,.31,0,.66.08c.88.1,1.75.23,2.61.4s1.72.35,2.56.57a51.22,51.22,0,0,1,18,8.91,90.14,90.14,0,0,1,13.63,13,167.22,167.22,0,0,1,11,14.36c6.71,9.81,12.57,19.93,18.53,29.5,1.49,2.38,3,4.72,4.54,6.94a58.47,58.47,0,0,0,4.72,6,17.71,17.71,0,0,0,2.26,2.12,7,7,0,0,0,1.27.8s-.09,0-.22,0-.11,0-.15.06v0l.06,0,.16-.06.3-.12a8.92,8.92,0,0,0,2.22-1.2,10.05,10.05,0,0,0,3.19-4.17,19.42,19.42,0,0,0,1.51-6.33,40.22,40.22,0,0,0-1.74-14.81,50.23,50.23,0,0,0-6.5-14c-2.82-4.07-7.06-8.24-10.8-13a71.54,71.54,0,0,1-5.33-7.55,60.89,60.89,0,0,1-4.21-8.34,65.54,65.54,0,0,1-2.83-8.82,70.19,70.19,0,0,1-1.52-9,98.94,98.94,0,0,1-.1-17.88,143.78,143.78,0,0,1,2.5-17.4c.3-1.43.64-2.85,1-4.27l.48-2.13.54-2.11,1.08-4.22,1.2-4.18q2.47-8.34,5.46-16.47l-1.73,8.48c-.51,2.84-1.1,5.65-1.52,8.5-1,5.65-1.75,11.34-2.34,17-1,11.33-1.36,22.77.76,33.58a71.06,71.06,0,0,0,2,7.92,56.82,56.82,0,0,0,3,7.42,55.78,55.78,0,0,0,4.05,6.83,63,63,0,0,0,5.06,6.24c1.84,2,3.82,4,5.85,6.06a78.55,78.55,0,0,1,6.2,6.86,59.21,59.21,0,0,1,9,16.8,52.62,52.62,0,0,1,3.08,19.22,31.71,31.71,0,0,1-2.14,10.48,24.89,24.89,0,0,1-2.76,5.14,22.23,22.23,0,0,1-9.38,7.61l-.69.29-.35.15-.18.07-.28.09a11.91,11.91,0,0,1-2.25.54,12.79,12.79,0,0,1-4.51-.15,17.17,17.17,0,0,1-6.43-3,31.94,31.94,0,0,1-4.16-3.64,71.4,71.4,0,0,1-6.13-7.4c-1.81-2.47-3.49-4.94-5.12-7.4-3.26-4.91-6.28-9.83-9.35-14.64s-6.16-9.54-9.38-14.1a156.81,156.81,0,0,0-10.08-13,76.27,76.27,0,0,0-11.38-10.79,36.37,36.37,0,0,0-12.7-6.47,16.29,16.29,0,0,0-1.65-.37,15.93,15.93,0,0,0-1.66-.27l-2.26-.34-2.58-.42c-1.71-.37-3.39-.88-5.07-1.37l-2.43-1a24.41,24.41,0,0,1-2.39-1.06,50.71,50.71,0,0,1-15.74-12.48,74.81,74.81,0,0,1-10.37-15.94,117.05,117.05,0,0,1-6.72-17.12,140.52,140.52,0,0,1-4.18-17.57q-1.56-8.85-2.28-17.76t-.51-17.82a165.57,165.57,0,0,1,1.2-17.8c.36-3,.77-5.91,1.31-8.86.24-1.47.56-2.94.88-4.4.16-.74.29-1.45.49-2.21l.61-2.26a55.15,55.15,0,0,1,7.87-17,50,50,0,0,1,13.51-12.93,56.76,56.76,0,0,1,16.84-7.13,65.67,65.67,0,0,1,17.83-1.8,66.91,66.91,0,0,1,17.43,3,49.83,49.83,0,0,1,8.12,3.38A34.2,34.2,0,0,1,1428.71,1754.43Z" transform="translate(-133.32 -383.72)"/></g><g id="SHADOW_INNER_" data-name="SHADOW (INNER)" class="cls-11"><path d="M1433,1758.43a45.12,45.12,0,0,0-10.38-4.62,56,56,0,0,0-10.94-2.28,58.32,58.32,0,0,0-21.66,1.55,42.88,42.88,0,0,0-9.73,3.91,36.94,36.94,0,0,0-8.2,6,40.21,40.21,0,0,0-10.24,17.13c-.5,1.64-.95,3.29-1.29,5-.2.84-.33,1.7-.48,2.55l-.43,2.68q-.79,5.4-1.17,10.9a184.63,184.63,0,0,0-.18,22.07,186.89,186.89,0,0,0,2.32,21.94,151.15,151.15,0,0,0,5,21.27,98.06,98.06,0,0,0,8.27,19.59,50,50,0,0,0,12.68,15.25,35.21,35.21,0,0,0,3.92,2.57,31.56,31.56,0,0,0,4.2,1.89,32.43,32.43,0,0,0,4.45,1.19l1.15.19.29,0,.42,0,.85.13c1.14.18,2.26.4,3.37.67a44.15,44.15,0,0,1,12.33,5.17,61.66,61.66,0,0,1,10.07,7.8,84.25,84.25,0,0,1,8.22,9.08c2.5,3.15,4.81,6.4,7,9.71,4.31,6.61,8,13.44,11.61,20.27s6.9,13.72,10.5,20.38a69.16,69.16,0,0,0,6,9.51,18.58,18.58,0,0,0,3.88,3.89,6.48,6.48,0,0,0,5.25,1.17,6.07,6.07,0,0,1-2.87.59,8.31,8.31,0,0,1-2.94-.73,20.35,20.35,0,0,1-5-3.36,69.75,69.75,0,0,1-7.83-8.79c-4.77-6.16-9-12.6-13.35-18.87s-8.66-12.49-13.29-18.31a104.47,104.47,0,0,0-15-15.73c-5.41-4.45-11.37-7.75-17.44-8.88q-1.14-.21-2.28-.33l-1.29-.12-1.7-.18a41.06,41.06,0,0,1-6.71-1.48,43.78,43.78,0,0,1-6.36-2.56,49.24,49.24,0,0,1-5.82-3.49,53,53,0,0,1-9.7-8.93,74.11,74.11,0,0,1-7.4-10.37,110.19,110.19,0,0,1-9.8-22.54,163.1,163.1,0,0,1-5.31-23.46,193.34,193.34,0,0,1-2-23.76,177.45,177.45,0,0,1,1.18-23.82q.72-5.94,1.91-11.85c.21-1,.42-2,.65-3s.5-2,.81-3.05a62.19,62.19,0,0,1,2-6,49.26,49.26,0,0,1,14.92-20.68,46.27,46.27,0,0,1,11-6.47,51.63,51.63,0,0,1,12-3.27,59.21,59.21,0,0,1,35,6A41.53,41.53,0,0,1,1433,1758.43Z" transform="translate(-133.32 -383.72)"/></g><path id="OUTLINE-2" data-name="OUTLINE" class="cls-9" d="M2395.4,3063.68c-229,15.66-298.15-96.9-521.93-266.39-278.64-211-318.35-500.65-339.83-711.68-43.1,45.53-171.18,88.47-216.24-2.59-337.4-682,135.25-523.26,140.14-484.35-149.66-433.05-52.55-538.22,2.64-661.32,141.17-314.68,428.12-394.21,869.1-353.48,614.56,60.35,837.2,497.66,807.23,1131.77-56.27,244-6,410.89-100.92,603.75-133.17,241.26-199.9,338.11-334.54,492.73C2605.93,2954.69,2588.13,3045.05,2395.4,3063.68Z" transform="translate(-133.32 -383.72)"/><path id="HIGHLIGHT_HEAD_" data-name="HIGHLIGHT (HEAD)" class="cls-10" d="M2377.05,3048.41c-140.28-128.36-261.17-279.75-337.84-426.82-222.6-427-275.47-616.49-23.1-1078.6,24.68-45.19,129.87-330.3,131.74-329.94-45.89-9-80.13-16-117.18-27.37-9.74-2.93-16.86-5.22-21.17-6.65l-5-1.62c-80.42,37.06-122,159.83-122,159.83-7.78-12.27-17.22-43.08-23.27-77-26.66,52.1-50.58,269.59-50.58,269.59-12.35-59.29-16.06-150.86-16.06-150.86-29.08,90.9-45.61,229-45.61,229-19.76-54.35-22.9-70.08-22.9-70.08-28.19,89.89-32.2,177-32.2,177-24.7-98.81-27.09-109.26-27.09-109.26l-29.44-274.07c-12.56,45.7-25.5,100.08-39.42,164.47-14.43,66.76-89.71-63-89.46,225.38-2.14,24,5.72,122.93-18.66,104.12-36.17-35.49-42.39,54.7-36.19,82,10.58,37.7,74.26,96.71,94.72,140.65,43,542,216.11,664.8,429.16,830.07C2228.11,3119,2437.44,3071.88,2377.05,3048.41Z" transform="translate(-133.32 -383.72)"/></g><g id="TEETH"><path id="WHITE" class="cls-12" d="M2227.81,2613.17l6.87-8.51s230,57.62,358,39.77,205.12-44.77,205.12-44.77-137.27,169.43-201.63,178.05S2286.86,2681.72,2227.81,2613.17Z" transform="translate(-133.32 -383.72)"/><g id="SHADOW_TOP_" data-name="SHADOW (TOP)" class="cls-3"><path d="M2271.19,2625.11c42.2,11.59,84.25,23,126.72,32.07s85.23,16.23,128.26,19.52q16.13,1.25,32.28,1.65c10.76.31,21.52.26,32.26-.07s21.47-1,32.16-2.1l8-.89c2.66-.31,5.32-.71,8-1.05,5.31-.75,10.62-1.58,15.89-2.56a322.4,322.4,0,0,0,61.91-17.57,280,280,0,0,0,29.33-13.74c2.35-1.33,4.77-2.59,7.09-4s4.67-2.78,7-4.23,4.6-2.92,6.88-4.42,4.49-3.09,6.76-4.63c-2,1.87-4,3.72-6,5.56s-4.17,3.55-6.27,5.33-4.33,3.37-6.51,5.07-4.46,3.22-6.69,4.84a232.61,232.61,0,0,1-28.48,16.91,283.78,283.78,0,0,1-62.52,22.4,375.19,375.19,0,0,1-65.82,9.27c-11.06.63-22.13.79-33.19.67s-22.1-.7-33.12-1.51c-44.06-3.38-87.49-11.67-129.89-23.05A899.37,899.37,0,0,1,2271.19,2625.11Z" transform="translate(-133.32 -383.72)"/></g><g id="TEETH2"><path d="M2264.84,2626.76c7,5.46,14.77,9.74,22.69,13.63s16.13,7.28,24.39,10.45c16.53,6.29,33.43,11.6,50.46,16.38s34.23,9,51.52,12.71,34.68,7,52.15,9.81,35,5.08,52.62,6.7a488.05,488.05,0,0,0,53,2.34,366.13,366.13,0,0,0,52.76-4.79c8.72-1.45,17.39-3.19,26-5.3a252.87,252.87,0,0,0,25.45-7.43l0,.09c-16.62,6.13-33.92,10.24-51.36,13.3a353.46,353.46,0,0,1-52.86,5.13,479.63,479.63,0,0,1-53.06-2.38c-17.63-1.69-35.18-4.05-52.66-6.89s-34.87-6.17-52.16-10-34.48-8-51.51-12.86-33.91-10.22-50.44-16.58c-8.25-3.2-16.42-6.63-24.36-10.54a127.67,127.67,0,0,1-22.68-13.73Z" transform="translate(-133.32 -383.72)"/></g></g><g id="LIPS"><path id="SHADOW_BOTTOM_" data-name="SHADOW (BOTTOM)" class="cls-6" d="M2266.06,2657.7c209.41,267.34,428.89,191.9,502.52-20.9-240.12,248.7-347.58,107.76-497.32,14.3" transform="translate(-133.32 -383.72)"/><path id="BOTTOM" class="cls-13" d="M2228.29,2612.84c207.23,264.55,467.69,233.37,570.05-11.5-160.83,208.27-426.94,93.47-565.56,6.95" transform="translate(-133.32 -383.72)"/><path id="TOP" class="cls-14" d="M2237.05,2602.57c37,8.82,73.08,20.34,140.3,11.62,81.19-10.52,115.27-29.06,154.86-25.06s46.11,13.94,63.65,15,44.1-12,70.66-10.47,50.12,15,73.17,16.53,58.14-10.52,58.14-10.52-47.5,46.72-132.86,66-156.49,9.21-221.76,0c-56.24-7.93-159.73-36.54-210.43-59.33" transform="translate(-133.32 -383.72)"/><g id="DIMPLE"><path d="M2210,2655.26a102.08,102.08,0,0,1,4.95-25.41c.65-2.09,1.56-4.1,2.37-6.14s2-3.94,3-5.92l1.8-2.8.91-1.4.46-.7.52-.65,2.11-2.6c.36-.43.7-.87,1.07-1.29l1.18-1.19a58.66,58.66,0,0,1,22.31-14.06,92.08,92.08,0,0,1,25.38-5.18c-8.2,2.63-16.29,5.25-23.87,8.78a68,68,0,0,0-20.22,13.93l-1.1,1.08c-.34.38-.65.78-1,1.17l-2,2.35-.49.59-.44.63-.87,1.27-1.76,2.52c-1,1.8-2.1,3.55-3.08,5.38l-1.37,2.81c-.46.93-1,1.85-1.34,2.83C2215.21,2638.94,2212.67,2647.07,2210,2655.26Z" transform="translate(-133.32 -383.72)"/></g><g id="HIGHLIGHT_TOP_" data-name="HIGHLIGHT (TOP)" class="cls-15"><path class="cls-12" d="M2320.24,2627.11a314.57,314.57,0,0,0,32.13-2.42c10.54-1.25,21-2.79,31.44-4.47,20.87-3.29,41.61-7.18,62.27-11.41,5.17-1,10.31-2.2,15.47-3.3s10.29-2.27,15.4-3.53l3.84-.91,1.92-.46,2.09-.55c2.8-.73,5.61-1.37,8.44-1.84a120.8,120.8,0,0,1,17-1.73,143.91,143.91,0,0,1,33.27,2.9,151.21,151.21,0,0,1,16,4.12c2.61.83,5.2,1.72,7.75,2.7,1.28.49,2.54,1,3.8,1.54s2.55,1.12,3.66,1.69a239.84,239.84,0,0,0-32-2.32,180.51,180.51,0,0,0-31.18,2.37,130,130,0,0,0-14.87,3.42c-2.41.73-4.8,1.48-7.13,2.35l-1.76.67-1.93.77c-1.28.5-2.55,1.06-3.85,1.52a285.32,285.32,0,0,1-31.51,9.77c-5.33,1.31-10.69,2.47-16.07,3.54-2.7.5-5.4,1-8.11,1.44l-4.05.67c-1.36.22-2.72.39-4.08.58-2.71.38-5.44.7-8.16,1.05s-5.46.56-8.2.79c-5.46.52-11,.74-16.46.93a221.42,221.42,0,0,1-33-1.53,148.87,148.87,0,0,1-16.34-3A85.42,85.42,0,0,1,2320.24,2627.11Z" transform="translate(-133.32 -383.72)"/></g><g id="HIGHLIGHT_BOTTOM_" data-name="HIGHLIGHT (BOTTOM)" class="cls-3"><path class="cls-12" d="M2313.29,2661.53a357.86,357.86,0,0,0,56.61,27.72,513.75,513.75,0,0,0,59.55,18.82c20.22,5.15,40.71,9.37,61.42,13,10.35,1.82,20.76,3.46,31.23,5s21,3,31.6,4.64a262.59,262.59,0,0,1-32,2.72c-10.73.3-21.47,0-32.19-.66a354.56,354.56,0,0,1-63.73-10.15,289.11,289.11,0,0,1-60.68-22.64,213.36,213.36,0,0,1-27.68-16.95A152.52,152.52,0,0,1,2313.29,2661.53Z" transform="translate(-133.32 -383.72)"/></g><g id="SHADOW_BOTTOM_2" data-name="SHADOW (BOTTOM)" class="cls-3"><path d="M2609.51,2776.56c10.55-6.3,20.82-12.5,31-18.88s20.29-12.85,30.31-19.41,20-13.21,29.79-20.09c2.43-1.75,4.94-3.41,7.32-5.22s4.89-3.49,7.23-5.36l3.6-2.72,3.5-2.85,1.78-1.42c.6-.46,1.13-1,1.7-1.49,1.15-1,2.28-2,3.47-3a65.76,65.76,0,0,1-4.91,7.83c-.91,1.25-1.84,2.48-2.78,3.72l-3,3.53c-2,2.37-4.15,4.56-6.31,6.76-1.07,1.11-2.16,2.2-3.3,3.24s-2.24,2.1-3.39,3.13a238.18,238.18,0,0,1-29.23,22.32,261.08,261.08,0,0,1-32.05,17.93q-4.2,1.89-8.43,3.69c-2.84,1.17-5.72,2.23-8.59,3.31s-5.84,1.93-8.77,2.82S2612.51,2775.91,2609.51,2776.56Z" transform="translate(-133.32 -383.72)"/></g></g><g id="NOSE"><path id="SHADOW_R_NOSTRIL_" data-name="SHADOW (R NOSTRIL)" class="cls-6" d="M2568.56,2425.65c32.74,13.29-24.25,15.06-50.82,11.12s-74.39-20-45.42-25.37c10-1.86,21.3-10.57,47.88-6.63S2556.73,2420.86,2568.56,2425.65Z" transform="translate(-133.32 -383.72)"/><path id="HIGHLIGHT_NOSTRIL_" data-name="HIGHLIGHT (NOSTRIL)" class="cls-10" d="M2405.07,2391.84c-47.78-43.75-18.77-146.32,32.82-157.92C2401.22,2281.7,2387.54,2352.69,2405.07,2391.84Z" transform="translate(-133.32 -383.72)"/><g id="OUTLINE-3" data-name="OUTLINE"><path d="M2767,1889.13c-6,22.84-9.32,46.17-11.72,69.5-1.18,11.68-2,23.39-2.6,35.1s-1,23.42-1.08,35.12c-.35,23.43,1.06,46.78,1.25,70.12a666.19,666.19,0,0,0,6.24,69.63c3.38,23,8,45.82,14.91,67.83a276.76,276.76,0,0,0,12.19,32.16c1.22,2.57,2.41,5.16,3.72,7.67l4,7.92q4.07,8.07,7.67,16.42a188.43,188.43,0,0,1,11.49,34.94,106.31,106.31,0,0,1,2.36,18.85,70.31,70.31,0,0,1-2,19.6,53.41,53.41,0,0,1-8.62,18.51,56.15,56.15,0,0,1-14.83,13.84,78.51,78.51,0,0,1-17.61,8.37,118.9,118.9,0,0,1-18.3,4.51c-1.53.26-3.06.5-4.59.71-.77.11-1.53.21-2.3.3l-2.19.28c-1.35.19-2.7.34-4,.6l-2,.36-2,.43a80.85,80.85,0,0,0-15.34,5.13c-5,2.22-10,4.95-15.2,7.78s-10.66,5.74-16.45,8.2c-2.88,1.25-5.87,2.33-8.87,3.35s-6.08,1.86-9.17,2.54a118.93,118.93,0,0,1-18.63,2.73,142.09,142.09,0,0,1-37.18-2.16,139.72,139.72,0,0,1-18-4.87c-5.86-2-11.53-4.34-17-6.78-11-4.92-21.39-10.19-31.93-14.2a133,133,0,0,0-16-5,115.3,115.3,0,0,0-16.32-2.72c-10.94-1-22.28-.14-33.81,1.14s-23.34,3-35.62,3.62a129.31,129.31,0,0,1-18.74-.29,83.65,83.65,0,0,1-19-3.94,71.14,71.14,0,0,1-17.6-8.82,77.23,77.23,0,0,1-7.69-6.08,80.09,80.09,0,0,1-6.89-7,67,67,0,0,1-10.38-16.92,87.55,87.55,0,0,1-5.56-18.46,129,129,0,0,1-1.16-37.42,167.66,167.66,0,0,1,8.1-36.11c.45-1.49.91-3,1.48-4.41a41.44,41.44,0,0,1,2.05-4.18c1.48-2.74,3.07-5.42,4.72-8.05s3.41-5.19,5.24-7.69,3.76-4.93,5.82-7.25a84,84,0,0,1,13.66-12.47,49.33,49.33,0,0,1,16.32-7.85,51.06,51.06,0,0,0-13.17,11.32,77.41,77.41,0,0,0-9.52,14.15,110.2,110.2,0,0,0-6.92,15.46c-1,2.66-1.84,5.33-2.61,8-.41,1.34-.76,2.71-1.25,4s-1,2.6-1.55,3.91c-1,2.61-1.82,5.3-2.6,8s-1.46,5.42-2.09,8.15a148,148,0,0,0-2.77,16.57,114.22,114.22,0,0,0,1,33c2,10.65,6.07,20.74,12.62,28.45a62.88,62.88,0,0,0,5.51,5.58,59.8,59.8,0,0,0,6.17,4.88,55.56,55.56,0,0,0,13.9,7c9.91,3.38,20.91,4,32.16,3.46s22.84-2.25,34.72-3.55,24.18-2.27,36.76-1.17a129.54,129.54,0,0,1,18.53,3.08,145.43,145.43,0,0,1,17.77,5.55c11.51,4.39,22.18,9.84,32.68,14.51a146.39,146.39,0,0,0,31.88,10.64,127.25,127.25,0,0,0,33.22,1.92,95.9,95.9,0,0,0,31.84-7.46c5.07-2.15,10-4.77,15.18-7.58s10.51-5.75,16.28-8.31a95.34,95.34,0,0,1,18.13-6.06l2.35-.51,2.35-.42c1.57-.3,3.15-.48,4.73-.7l2.19-.28c.69-.08,1.39-.18,2.08-.28,1.39-.18,2.77-.4,4.15-.63,10.95-1.87,21.62-5.07,30.24-10.68a41,41,0,0,0,10.91-10.12,38.54,38.54,0,0,0,6.19-13.36c2.5-9.81,1.77-20.85-.51-31.65a174,174,0,0,0-10.59-32.12c-2.26-5.25-4.71-10.46-7.29-15.61l-4-7.83c-1.41-2.71-2.69-5.48-4-8.23a289.53,289.53,0,0,1-12.87-33.93c-7.19-23-12-46.54-15.45-70.15a703.39,703.39,0,0,1-6.42-71.19c-.27-5.94-.56-11.88-.71-17.83s0-11.9.27-17.85q.72-17.83,2.21-35.6t3.74-35.42q2.34-17.64,5.56-35.14c2.16-11.66,4.61-23.26,7.59-34.73A330.23,330.23,0,0,1,2767,1889.13Z" transform="translate(-133.32 -383.72)"/></g><path id="SHADOW_L_NOSTRIL_" data-name="SHADOW (L NOSTRIL)" class="cls-6" d="M2767.83,2407.69c24,2.9-4.64,18.59-30.38,26.29s-58.93,16.16-51.16,3.05c5.19-8.76,14.47-13.72,40.21-21.42S2755.17,2406.15,2767.83,2407.69Z" transform="translate(-133.32 -383.72)"/><path id="SHADOW_BRIDGE_" data-name="SHADOW (BRIDGE)" class="cls-6" d="M2767,1889.13c-52.23,222.69,9.24,402.23,41,445.38C2777.36,2257.15,2743.38,2081.5,2767,1889.13Z" transform="translate(-133.32 -383.72)"/><path id="HIGHLIGHT_BRIDGE_" data-name="HIGHLIGHT (BRIDGE)" class="cls-10" d="M2515.83,1889.13c17.57,171.4-12.53,320.38-18.26,346.48-9.25-13.59-28.71-17.61-45.53-15.49C2478.06,2155.73,2500.3,2064.94,2515.83,1889.13Z" transform="translate(-133.32 -383.72)"/></g><g id="EYES"><path id="R_WHITE" data-name="R WHITE" class="cls-12" d="M2263.64,1789.65c-79.88-9.14-145.59-11.83-211.5,29.09,19.68,37.64,110.36,85.73,201.81,102.85s181.47,7.72,194-2c0-11.1,3.33-26.86,5-34.2C2451.59,1872.7,2384.4,1803.47,2263.64,1789.65Z" transform="translate(-133.32 -383.72)"/><path id="L_WHITE" data-name="L WHITE" class="cls-16" d="M2806.44,1920.7s19.76-37.7,59.24-62.15c34.09-21.1,71.18-31.31,138.57-21.28,52.63,7.83,91.15,46.23,91.15,46.23S3055,1940,2991.76,1960.66c-52.75,17.18-135.77,11.23-182.51-4.64C2809.52,1943.59,2809.22,1935,2806.44,1920.7Z" transform="translate(-133.32 -383.72)"/><circle id="R_IRIS" data-name="R IRIS" class="cls-17" cx="2105.07" cy="1468.21" r="63.51"/><path id="R_OUTLINE" data-name="R OUTLINE" class="cls-18" d="M2263.64,1789.65c-79.88-9.14-145.59-11.83-211.5,29.09,19.68,37.64,110.36,85.73,201.81,102.85s181.47,7.72,194-2c5-10.89,6.22-26.2,5-34.2C2451,1872.77,2384.4,1803.47,2263.64,1789.65Z" transform="translate(-133.32 -383.72)"/><circle id="L_IRIS" data-name="L IRIS" class="cls-17" cx="2766.99" cy="1523.16" r="63.51"/><g id="L_OUTLINE" data-name="L OUTLINE"><path d="M2806.44,1920.7c1.43-3,2.91-6.19,4.5-9.43.4-.8.78-1.66,1.21-2.42l1.31-2.29,2.62-4.6,1.33-2.3.67-1.15.75-1.09,3-4.4,3-4.42,3.29-4.22a162.43,162.43,0,0,1,30.83-30.24,67.56,67.56,0,0,1,9.26-5.77c1.63-.8,3.27-1.59,4.88-2.42s3.2-1.74,4.86-2.46c3.33-1.46,6.62-3,10-4.38s6.79-2.57,10.21-3.76a193.23,193.23,0,0,1,42.37-9,217.91,217.91,0,0,1,85.44,8.82,204.46,204.46,0,0,1,39.74,17,167.09,167.09,0,0,1,35,26l4.69,4.59-4,5.25a249.66,249.66,0,0,1-27,30.43,219,219,0,0,1-32,25.34,208.23,208.23,0,0,1-36.32,18.79,226.28,226.28,0,0,1-39.13,11.55c-26.67,5.36-54,6.14-80.75,3.86l-5-.44c-1.67-.17-3.34-.38-5-.56l-5-.58c-1.67-.2-3.33-.43-5-.61s-3.34-.36-5-.62-3.29-.65-4.92-1c-3.26-.83-6.53-1.61-9.75-2.54-12.94-3.55-25.66-7.6-38.1-12.32l-2.73-1,.26-2.29c.67-5.87,1.15-11.68,1.29-17.54.06-2.93,0-5.88-.13-8.83S2806.69,1923.63,2806.44,1920.7Zm0,0c.86,2.87,1.68,5.69,2.39,8.62s1.34,5.84,1.86,8.82a165.17,165.17,0,0,1,1.94,17.95l-2.47-3.32c12.93,2.32,25.84,4.38,38.78,5.76,3.22.4,6.46.63,9.69.92s6.42.74,9.6,1.32c1.59.28,3.18.56,4.78.75l4.8.55c1.6.18,3.2.39,4.81.54l4.81.42c25.64,2.19,51.52,1.41,76.52-3.62a211.65,211.65,0,0,0,36.53-10.77,194.12,194.12,0,0,0,33.73-17.45c21.32-13.78,39.81-31.78,55.19-52.2l.72,9.84a152.42,152.42,0,0,0-31.82-23.58,190,190,0,0,0-36.82-15.76,202.56,202.56,0,0,0-79.51-8.22,178.23,178.23,0,0,0-39.1,8.3c-3.14,1.1-6.24,2.31-9.36,3.45s-6.08,2.69-9.13,4-5.9,3-8.79,4.67l-1.09.61-1.05.67c-.69.46-1.41.87-2.12,1.3-1.43.83-2.9,1.61-4.39,2.36a167.68,167.68,0,0,0-33,23.21l-3.83,3.41-3.59,3.66-3.61,3.68-.91.92-.84,1-1.68,2-3.41,3.91-1.72,2c-.57.66-1,1.33-1.56,2Z" transform="translate(-133.32 -383.72)"/></g><path id="SHADOW_R_EYE_" data-name="SHADOW (R EYE)" class="cls-19" d="M2060.3,1892.2c61.76,130.79,304.66,142,378.32,64.15C2243.3,2028.24,2106.52,1934.32,2060.3,1892.2Z" transform="translate(-133.32 -383.72)"/><path id="SHADOW_L_EYE_" data-name="SHADOW (L EYE)" class="cls-19" d="M2815.05,1983.38c35.14,44.71,148.76,76.52,231.77-11.66C3004.46,1998.42,2904.15,2044.64,2815.05,1983.38Z" transform="translate(-133.32 -383.72)"/><circle id="R_PUPIL" data-name="R PUPIL" cx="2105.07" cy="1468.21" r="25.03"/><circle id="L_PUPIL" data-name="L PUPIL" cx="2766.99" cy="1523.16" r="25.03"/><path id="L_GLINT" data-name="L GLINT" class="cls-12" d="M2938.65,1882.79c-2.34,2.67-6-1.61-10.7-5.73s-8.67-6.5-6.33-9.18,8.05-1.5,12.75,2.62S2941,1880.12,2938.65,1882.79Z" transform="translate(-133.32 -383.72)"/><path id="R_GLINT" data-name="R GLINT" class="cls-12" d="M2276.17,1831.57c-2.34,2.67-6-1.61-10.7-5.73s-8.67-6.5-6.33-9.18,8.05-1.5,12.75,2.61S2278.51,1828.9,2276.17,1831.57Z" transform="translate(-133.32 -383.72)"/></g><g id="EYEBROWS"><path id="R_EYEBROW" data-name="R EYEBROW" class="cls-20" d="M2563.07,1795.54c20.56,3.51,48.34-18.08,48.48-33.25.15-16.48-12.79-28-39.56-44.34s-264.66-168-316.7-171-186.79,65.83-186.79,80.7,23.79,56.32,44.61,56.32,112.44-34.09,160-22.25S2537.79,1791.24,2563.07,1795.54Z" transform="translate(-133.32 -383.72)"/><path id="L_EYEBROW" data-name="L EYEBROW" class="cls-20" d="M2846.23,1753.56c-25.71,30.35-27.69,56.93,0,58s176-57.18,217.15-58.69c43.23-1.59,70-6.39,81.58-18.44,4.62-4.81,14.71-25,17.16-55.75,2.9-36.37-15.56-49.54-54.92-37.26C3061.6,1655.62,2858.38,1739.21,2846.23,1753.56Z" transform="translate(-133.32 -383.72)"/></g><g id="HAIR"><path id="SHADOW" class="cls-6" d="M1664.76,1605.57s2.39,10.45,27.09,109.26c0,0,4-87.1,32.2-177,0,0,3.14,15.73,22.9,70.08,0,0,16.53-138.06,45.61-229,0,0,3.71,91.57,16.06,150.86,0,0,23.92-217.49,50.58-269.59,6,33.93,15.49,64.74,23.27,77,0,0,41.65-122.86,122.12-159.88,0,0,511.31,166.79,1090.81,21.49l-27.73-186.25L1595.9,964.67Z" transform="translate(-133.32 -383.72)"/><path id="HAIR-2" data-name="HAIR" class="cls-21" d="M3222.75,975.54s69.42,0,193.16,27.17c-53.27-35.91-142-93.86-226.69-171.29,15,.19,34.2,6.5,55,11.09-55.24-45.59-86.42-63.57-134.83-105-76.1-71-155.8-130.07-238.6-168.91C2350.14,260,1437.66,401.82,1539,800.13c-314.83-187-385.83,730.69-324.71,822.72,53.33-90.84,155.4-31.53,217.13,28.9,42.63,56.75,62.18,181.68,68,220.54l111.17,34.58s-22.15-277.24,32.2-425.47c0,0,2.38,10.44,27.09,109.26,0,0,4-87.1,32.19-177,0,0,3.14,15.73,22.91,70.08,0,0,16.53-138.06,45.61-229,0,0,3.71,91.57,16.06,150.86,0,0,23.92-217.49,50.57-269.59,6.06,33.92,15.49,64.73,23.27,77,0,0,41.65-122.86,122.13-159.87,0,0,483.58,170.81,1063.08,25.51,0,0,69.43,115.6,116.7,512.79,0,0,42.73-141.3,0-413.33,0,0,35,47,46.42,105.67,0,0,10.85-153.79-9.21-234.31,0,0,14.77,36.24,41.76,111.26C3241.39,1160.78,3263.61,1050.13,3222.75,975.54Z" transform="translate(-133.32 -383.72)"/><g id="STRANDS"><path class="cls-22" d="M1664.34,890.68a138.22,138.22,0,0,0-31.45-5.28,128.12,128.12,0,0,0-31.11,2.3,117.09,117.09,0,0,0-14.93,3.94,132.1,132.1,0,0,0-14.29,5.64c-4.61,2.22-9.15,4.57-13.52,7.22s-8.6,5.51-12.68,8.6c-16.38,12.29-30.48,27.57-42.78,44.22a310.39,310.39,0,0,0-17.18,26q-8,13.42-15,27.56c-4.76,9.34-9.07,18.95-13.22,28.64s-8,19.53-11.8,29.41c-1.8,5-3.71,9.91-5.41,14.94l-2.62,7.51-2.55,7.54c-3.37,10.07-6.53,20.23-9.66,30.41-6.17,20.39-11.8,41-17.2,61.74-2.72,10.36-5.33,20.77-8,31.19l-3.91,15.65c-1.33,5.22-2.57,10.46-4,15.67.26-5.39.67-10.76,1-16.15s.91-10.75,1.41-16.12,1.16-10.73,1.74-16.1,1.39-10.7,2.08-16.06q4.48-32.09,11.64-63.84c1.27-5.27,2.46-10.56,3.8-15.81s2.7-10.52,4.2-15.74l2.2-7.85,2.38-7.8c1.55-5.21,3.33-10.36,5-15.55.87-2.58,1.79-5.15,2.7-7.72s1.83-5.14,2.81-7.68l2.89-7.66,3-7.62c4.22-10.09,8.63-20.12,13.56-29.94s10.25-19.47,16-28.87a293.34,293.34,0,0,1,19-27.26,228.83,228.83,0,0,1,22.51-24.74,179,179,0,0,1,26.38-20.88,147,147,0,0,1,30.19-15.05,127.78,127.78,0,0,1,32.83-7.16A117.84,117.84,0,0,1,1664.34,890.68Z" transform="translate(-133.32 -383.72)"/><path class="cls-22" d="M1741.2,939.11a71.06,71.06,0,0,0-40.22-20.6,78.2,78.2,0,0,0-22.4,0,95,95,0,0,0-21.57,5.85,124.23,124.23,0,0,0-20,10.17,166.21,166.21,0,0,0-18.15,13.37,210.08,210.08,0,0,0-16.46,15.56l-3.87,4.16c-1.29,1.38-2.5,2.85-3.75,4.27-2.52,2.83-4.88,5.82-7.29,8.75-18.94,23.82-34.4,50.46-47.88,78-1.65,3.47-3.34,6.92-5,10.41l-4.8,10.49-4.57,10.6c-1.55,3.53-2.93,7.13-4.4,10.69-5.78,14.28-11.28,28.71-16.23,43.34l-1.91,5.47-1.83,5.5c-1.21,3.68-2.46,7.33-3.64,11-2.29,7.38-4.68,14.74-6.83,22.18-4.56,14.79-8.56,29.77-12.6,44.74-7.91,30-14.85,60.29-21.29,90.73-12.85,60.9-23.09,122.45-33.33,184.23a1471.59,1471.59,0,0,1,17.87-187.1q3.69-23.27,8.31-46.38l1.13-5.79,1.21-5.77,2.45-11.54c1.69-7.67,3.48-15.34,5.25-23l2.84-11.46,1.43-5.73,1.52-5.71,3-11.42,3.21-11.37c2.12-7.59,4.54-15.11,6.83-22.65,1.19-3.76,2.44-7.51,3.66-11.26l1.84-5.63,1.94-5.6c10.39-29.82,22.33-59.23,36.92-87.47a461,461,0,0,1,23.94-41.31,331.77,331.77,0,0,1,28.85-38.31,230.06,230.06,0,0,1,35.27-33,168.74,168.74,0,0,1,20.5-13.08,130.83,130.83,0,0,1,22.52-9.42,101.4,101.4,0,0,1,24-4.37,80.17,80.17,0,0,1,24.23,2.36,71.85,71.85,0,0,1,22,9.72c.85.53,1.65,1.13,2.45,1.73s1.6,1.18,2.38,1.8l2.27,1.93c.37.32.76.63,1.12,1l1.07,1A68,68,0,0,1,1741.2,939.11Z" transform="translate(-133.32 -383.72)"/><path class="cls-22" d="M1816.61,981.52a61.89,61.89,0,0,0-27.52-10.39l-1.82-.24c-.6-.08-1.22-.08-1.83-.13-1.22-.06-2.43-.18-3.65-.2l-3.66,0c-1.22,0-2.43.16-3.64.23-2.43.11-4.83.6-7.23.92l-3.57.77-1.77.39-1.75.5-3.5,1-3.43,1.22-1.71.6-1.69.7-3.35,1.39c-1.12.47-2.2,1-3.29,1.56s-2.2,1-3.26,1.62l-3.18,1.77-1.59.88c-.53.3-1,.64-1.55,1a147.36,147.36,0,0,0-23.14,17.69c-14.38,13.17-26.55,28.69-37.39,45a417,417,0,0,0-28.45,51.6c-16.57,35.78-29.29,73.37-39.79,111.56s-18.65,77.12-25.39,116.3c-13.39,78.39-21.2,157.84-26.32,237.5s-7.26,159.66-9.11,239.82c-3.39-40-5.28-80-6.5-120.12s-1.16-80.26-.1-120.41c2.22-80.28,8.71-160.67,22.33-240.18.85-5,1.8-9.92,2.7-14.88l1.37-7.44,1.47-7.42,3-14.84,3.24-14.79c4.52-19.68,9.43-39.29,15.11-58.7s12-38.65,19.32-57.58q5.43-14.21,11.54-28.16l1.53-3.49,1.6-3.46,3.21-6.91c2.16-4.6,4.48-9.12,6.72-13.69s4.7-9,7.2-13.46,5-8.88,7.68-13.21c5.2-8.76,10.93-17.23,16.91-25.51l4.61-6.13c1.51-2,3.18-4,4.77-6l2.41-3,2.51-2.91,2.53-2.89c.84-1,1.67-1.93,2.57-2.85l5.28-5.6,5.5-5.39c3.75-3.5,7.54-7,11.58-10.17a156.31,156.31,0,0,1,25.74-17c.57-.3,1.13-.61,1.71-.9l1.75-.82,3.5-1.64c1.17-.56,2.39-1,3.58-1.49s2.39-1,3.61-1.41l3.67-1.24c.61-.2,1.22-.42,1.84-.6l1.88-.5,3.74-1,3.8-.76,1.9-.37,1.92-.27,3.84-.5c2.58-.13,5.14-.42,7.72-.34,1.29,0,2.58,0,3.86.08l3.85.28c1.27.13,2.54.36,3.81.53.64.1,1.27.16,1.9.3l1.88.42a72.06,72.06,0,0,1,7.38,2.07l3.56,1.38c1.18.46,2.31,1.07,3.46,1.6A60.51,60.51,0,0,1,1816.61,981.52Z" transform="translate(-133.32 -383.72)"/><path class="cls-22" d="M1808.59,1045.74c-3,2.49-5.85,4.94-8.52,7.67-1.35,1.34-2.71,2.64-4,4s-2.63,2.71-3.87,4.15c-5.09,5.58-9.9,11.39-14.48,17.36a419.07,419.07,0,0,0-25.56,37,564.18,564.18,0,0,0-40.77,79.77c-1.41,3.47-2.91,6.89-4.27,10.37l-4,10.47c-2.6,7-5.19,14-7.54,21.16l-1.83,5.31c-.61,1.77-1.13,3.57-1.7,5.36-1.09,3.59-2.32,7.14-3.4,10.73-2.09,7.21-4.31,14.4-6.22,21.68-2.1,7.24-3.78,14.59-5.74,21.9l-2.59,11c-.44,1.84-.91,3.68-1.32,5.53l-1.19,5.56c-3.46,14.81-6.11,29.8-9.37,44.89-.3-3.84-.44-7.68-.66-11.53l-.24-5.78c-.06-1.93,0-3.85,0-5.78,0-3.85,0-7.7.07-11.57s.34-7.7.5-11.56l.32-5.79c.13-1.92.32-3.84.48-5.77l1.1-11.55c.46-3.84,1-7.67,1.52-11.51.27-1.91.49-3.84.81-5.75l1-5.72a398.36,398.36,0,0,1,10.41-45.38c2.08-7.49,4.63-14.84,7.08-22.23l4.07-10.95c1.38-3.64,2.89-7.23,4.34-10.84a367.83,367.83,0,0,1,46.33-81,274.37,274.37,0,0,1,31.24-34.72c2.84-2.66,5.81-5.2,8.76-7.73l4.56-3.65c1.5-1.23,3.12-2.34,4.68-3.5A103.65,103.65,0,0,1,1808.59,1045.74Z" transform="translate(-133.32 -383.72)"/><path class="cls-22" d="M1595.9,857.08c-1.86-.7-3.67-1.48-5.57-2.06s-3.75-1.21-5.64-1.75a99.47,99.47,0,0,0-11.52-2.41,118.23,118.23,0,0,0-23.3-1.32,146.06,146.06,0,0,0-45.14,9.41,163.87,163.87,0,0,0-20.89,9.63,181.58,181.58,0,0,0-19.47,12.22,211.45,211.45,0,0,0-17.94,14.38l-2.16,1.91c-.71.64-1.39,1.32-2.09,2l-4.17,4-4,4.11-2,2.05c-.66.69-1.3,1.41-2,2.12l-3.9,4.25c-1.29,1.42-2.51,2.91-3.77,4.36-2.54,2.89-4.92,5.93-7.32,8.94-1.22,1.48-2.37,3-3.53,4.57l-3.47,4.62c-2.27,3.13-4.47,6.3-6.68,9.46a412.57,412.57,0,0,0-23.69,39.89l-5.26,10.39-5,10.49-4.78,10.64c-1.57,3.56-3,7.17-4.54,10.76q-8.93,21.58-16.34,43.82c-4.91,14.83-9.47,29.8-13.57,44.91s-7.93,30.33-11.33,45.65-6.51,30.73-9.54,46.17c-1.39,7.74-2.79,15.48-4.12,23.24l-1.94,11.65c-.66,3.88-1.31,7.77-1.87,11.67-9.73,62.3-16,125.26-21.74,188.49a1299.34,1299.34,0,0,1,6.15-190.55q5.05-47.55,14.51-94.64c3.09-15.69,6.85-31.26,10.8-46.79q6.15-23.24,13.69-46.14c5.18-15.21,10.82-30.29,17.12-45.13A475.15,475.15,0,0,1,1361,978.46a384.15,384.15,0,0,1,26-41.07,297.85,297.85,0,0,1,31.82-37c.73-.71,1.43-1.45,2.18-2.15l2.24-2.08,4.51-4.15,4.66-4c.78-.66,1.54-1.34,2.34-2l2.4-1.9a200.38,200.38,0,0,1,20-14.22,181,181,0,0,1,21.59-11.65,168.68,168.68,0,0,1,23-8.59,143,143,0,0,1,48.29-5.64,119.77,119.77,0,0,1,23.86,3.89A92.45,92.45,0,0,1,1595.9,857.08Z" transform="translate(-133.32 -383.72)"/><path class="cls-22" d="M1640,820.52l-1.08-9.38-.51-4.71c-.11-1.57-.16-3.15-.24-4.73l-.45-9.47.15-9.5.11-4.75.41-4.74c.29-3.16.5-6.34.87-9.49,1-6.27,1.74-12.62,3.3-18.81l1-4.68.52-2.34.66-2.3,2.71-9.19c.41-1.55,1-3,1.57-4.54l1.65-4.5,1.66-4.51c.58-1.49,1.28-2.93,1.91-4.41,1.3-2.92,2.57-5.87,3.91-8.78l4.42-8.55,1.1-2.14.56-1.07.61-1,2.47-4.13,2.46-4.14c.82-1.39,1.64-2.77,2.56-4.08l5.42-8,1.37-2,1.46-1.91,2.93-3.82c3.81-5.2,8.1-10,12.26-14.87a302.58,302.58,0,0,1,27.48-27l3.64-3.16,1.81-1.58,1.88-1.5,7.53-6c2.49-2,5.11-3.87,7.7-5.76l7.78-5.64c10.6-7.18,21.35-14.18,32.52-20.41l8.36-4.72,8.49-4.43,4.25-2.22c1.41-.75,2.84-1.48,4.28-2.16l8.63-4.16,4.32-2.07c1.44-.68,2.91-1.3,4.37-2l8.76-3.86c2.91-1.33,5.87-2.51,8.82-3.71l8.86-3.61a692.17,692.17,0,0,1,72.54-24c24.54-6.77,49.41-12.22,74.41-16.79s50.19-8,75.43-10.66,50.58-4.35,75.92-5.34l19-.54,19-.23c3.17-.06,6.34,0,9.51,0l9.5.05c6.34,0,12.68.19,19,.35a1295.64,1295.64,0,0,1,151.31,12.73l18.77,2.8,18.72,3.13c6.24,1,12.44,2.25,18.66,3.37l9.32,1.74,9.29,1.91,9.29,1.91,4.64.95,4.63,1,18.5,4.15,18.41,4.49,4.6,1.13,4.58,1.2,9.16,2.42,9.15,2.44,9.11,2.6,9.11,2.6,4.55,1.3,4.53,1.38,18.1,5.52,18,5.9,4.49,1.48,4.47,1.57,8.92,3.13,8.93,3.13,8.86,3.29c11.82,4.38,23.52,9.06,35.18,13.81a1544.78,1544.78,0,0,0-293.94-62.78c-6.21-.76-12.45-1.31-18.67-2-3.11-.31-6.22-.67-9.33-.94l-9.35-.8c-6.23-.54-12.45-1.15-18.69-1.56s-12.47-.95-18.71-1.32q-37.42-2.34-74.92-2.77c-25-.25-50,0-74.9,1.16s-49.83,2.88-74.64,5.49-49.51,5.92-74,10.19-48.91,9.44-73,15.65c-48.11,12.48-95.22,29.21-139,52.39-5.52,2.81-10.83,6-16.21,9-2.71,1.49-5.32,3.14-7.94,4.77l-7.88,4.89c-10.27,6.84-20.45,13.87-30,21.67a300.87,300.87,0,0,0-27.44,24.76c-4.19,4.5-8.53,8.9-12.39,13.7l-3,3.53-1.49,1.77-1.39,1.84-5.57,7.37c-1,1.21-1.82,2.49-2.67,3.78l-2.58,3.83-2.58,3.84-.64,1-.59,1-1.17,2-4.7,8c-1.43,2.73-2.8,5.49-4.21,8.24-.69,1.39-1.44,2.75-2.08,4.15l-1.83,4.26-1.84,4.26c-.6,1.42-1.27,2.82-1.75,4.3l-3.14,8.74-.79,2.19-.65,2.23-1.3,4.47c-1.92,5.92-3,12-4.42,18.12-.57,3.06-1,6.15-1.47,9.23l-.71,4.63-.43,4.66-.87,9.35-.28,9.39c0,1.57-.11,3.14-.13,4.71l.15,4.71Z" transform="translate(-133.32 -383.72)"/><path class="cls-22" d="M1708.64,842.51a190.62,190.62,0,0,1,6.48-41.82,201.19,201.19,0,0,1,15.61-39.63c3.28-6.32,6.88-12.49,10.75-18.49s8.1-11.76,12.51-17.38a281,281,0,0,1,29.07-31.46,324,324,0,0,1,33.25-27,390.47,390.47,0,0,1,36.19-22.92,495.28,495.28,0,0,1,78-35c53.87-18.9,110.34-29.79,167.18-34.12a732.26,732.26,0,0,1,85.49-1.42,721.36,721.36,0,0,1,85.12,8.59q21.13,3.39,42.06,8.07c7,1.56,14,3.28,20.68,4.92s13.6,3.22,20.42,4.76q20.45,4.6,41.06,8.63t41.29,7.72c55.21,9.7,110.92,17.34,166.66,25.88s111.56,18.2,166.35,32.49c13.7,3.54,27.3,7.49,40.81,11.67s26.93,8.68,40.19,13.59,26.36,10.21,39.3,15.84,25.68,11.71,38.18,18.22c-52.06-21.64-106-37.71-160.88-49.17-54.84-11.65-110.46-19.23-166.23-26.37l-41.88-5.29c-14-1.77-27.95-3.51-41.93-5.39-28-3.75-55.93-7.68-83.84-12.35q-20.92-3.48-41.8-7.42T2347.15,619q-10.38-2.31-20.73-4.77c-7-1.66-13.63-3.31-20.41-4.85q-20.3-4.57-40.86-8a748.73,748.73,0,0,0-82.82-8.84A757.2,757.2,0,0,0,2099,593a712.32,712.32,0,0,0-82.77,9.91c-13.68,2.48-27.29,5.34-40.78,8.67s-26.86,7.16-40.09,11.39-26.29,9-39.13,14.28-25.49,11-37.81,17.44a409,409,0,0,0-35.93,21,345,345,0,0,0-33.31,24.89,272,272,0,0,0-29.57,29.23c-4.53,5.25-8.86,10.68-12.91,16.32s-7.91,11.43-11.45,17.42A199.17,199.17,0,0,0,1708.64,842.51Z" transform="translate(-133.32 -383.72)"/><path class="cls-22" d="M1784.25,881.69a124.48,124.48,0,0,1,6.82-45.65,141.65,141.65,0,0,1,22.84-40.66,188.06,188.06,0,0,1,33.73-32.5,268,268,0,0,1,39.7-24.85,363.81,363.81,0,0,1,43-18.53c14.68-5.25,29.63-9.7,44.74-13.46a601.76,601.76,0,0,1,92.05-14.9c62-5.36,124.43-2.59,185.89,6q46.09,6.59,91.42,17.5,11.31,2.73,22.56,5.72c7.47,2,14.79,3.93,22.21,5.82q22.22,5.7,44.53,10.9t44.79,9.73c15,3,30,5.93,45,8.63s30.13,5.18,45.24,7.5,30.25,4.53,45.42,6.53,30.37,3.87,45.59,5.64,30.46,3.45,45.72,5.05c30.52,3.17,61.11,6.25,91.73,9.59s61.25,7.23,91.73,12.34a891,891,0,0,1,90.63,19.58q22.36,6.16,44.3,13.66t43.28,16.47q21.33,9,42,19.27c13.76,6.91,27.34,14.16,40.63,21.9-13.81-6.76-27.73-13.26-41.85-19.28s-28.34-11.74-42.75-16.92-28.95-10-43.62-14.31-29.46-8.2-44.35-11.62-29.86-6.49-44.91-9.13-30.14-5-45.3-7c-30.31-4-60.78-7.06-91.34-9.66s-61.21-5-91.87-7.68q-23-2-46-4.28t-46-5.09a1732.84,1732.84,0,0,1-182.61-31.49c-15.05-3.49-30.09-7.07-45-11-7.46-1.92-15-4-22.37-5.92s-14.72-3.86-22.11-5.67c-29.57-7.18-59.43-13.25-89.52-17.75-15-2.26-30.13-4.22-45.26-5.78s-30.3-2.71-45.49-3.52a796.28,796.28,0,0,0-91.14.29,617.24,617.24,0,0,0-90.2,12.06c-14.84,3.15-29.53,7-44,11.58a358.53,358.53,0,0,0-42.34,16.32,265.65,265.65,0,0,0-39.44,22.22,189.28,189.28,0,0,0-34,29.71A136.78,136.78,0,0,0,1794,837.17a123.26,123.26,0,0,0-6.9,21.74A132.65,132.65,0,0,0,1784.25,881.69Z" transform="translate(-133.32 -383.72)"/><path class="cls-22" d="M1859.65,937.7a148.64,148.64,0,0,1,3.71-40.69,107,107,0,0,1,17.22-37.55,108.53,108.53,0,0,1,30.67-28.25,147.46,147.46,0,0,1,18.5-9.81,184,184,0,0,1,19.56-7.3,249.07,249.07,0,0,1,40.62-8.77,373.21,373.21,0,0,1,41.25-3.2c13.77-.37,27.53-.15,41.24.56s27.4,1.82,41,3.26c27.25,3,54.32,7.1,81.19,12.15q20.15,3.75,40.18,8c13.35,2.85,26.65,5.9,39.92,9s26.51,6.38,39.71,9.74,26.37,6.81,39.52,10.28l39.38,10.44c13.09,3.46,26.18,6.9,39.21,10a648.93,648.93,0,0,0,79.12,13c26.7,2.78,53.6,4.47,80.59,5.4,54,2,108.32,1.48,162.81,2.93,27.24.68,54.53,1.91,81.78,4.15q20.44,1.73,40.82,4.33c13.57,1.8,27.1,4,40.55,6.57s26.8,5.79,40,9.48a407.22,407.22,0,0,1,39,12.95,360.44,360.44,0,0,1,37.28,17.07,303.51,303.51,0,0,1,34.66,21.62,329.91,329.91,0,0,0-36.05-18.8,355.19,355.19,0,0,0-37.82-14.47A476.73,476.73,0,0,0,2916.52,922c-13.33-2-26.73-3.5-40.16-4.69s-26.89-2.09-40.38-2.71c-27-1.3-54-1.56-81.1-1.57-54.18.09-108.55,1.52-163.2.2-13.66-.36-27.33-.88-41-1.65s-27.37-1.8-41-3.22A629.56,629.56,0,0,1,2428,895c-13.41-3.19-26.59-6.7-39.75-10.21s-26.24-7.16-39.33-10.72-26.18-7.11-39.28-10.57-26.19-6.91-39.31-10.2c-52.49-13.12-105.31-24.92-158.71-32.14-13.34-1.82-26.71-3.33-40.11-4.4s-26.8-1.8-40.2-1.91c-26.76-.18-53.66,1.66-79.39,8.32a152.71,152.71,0,0,0-36.83,14.45,109.85,109.85,0,0,0-16.3,11.13c-2.56,2.08-5,4.32-7.35,6.62s-4.58,4.76-6.65,7.34a103.79,103.79,0,0,0-18.63,35.08C1862.07,910.6,1860.22,924.13,1859.65,937.7Z" transform="translate(-133.32 -383.72)"/><path class="cls-22" d="M1942.58,1005.05a115,115,0,0,1,4.35-26.61A73.81,73.81,0,0,1,1959.52,954a65.84,65.84,0,0,1,21.79-17.56,98.87,98.87,0,0,1,26.55-8.74c18.3-3.35,36.77-3.1,54.88-1.67,9.07.7,18.08,1.79,27,3.09s17.86,2.77,26.72,4.44c17.72,3.32,35.27,7.17,52.73,11.28s34.82,8.44,52.15,12.79l51.89,13.18c17.28,4.38,34.55,8.71,51.85,12.81,69.16,16.58,138.83,30.63,209.4,37a832.34,832.34,0,0,0,106.18,3.16c8.87-.32,17.73-.83,26.59-1.47s17.7-1.53,26.55-2.47c17.68-2,35.31-4.78,52.88-8.15-8.5,2.77-17.12,5.21-25.78,7.55s-17.44,4.23-26.23,6.08-17.65,3.36-26.53,4.77-17.82,2.5-26.77,3.5a697.63,697.63,0,0,1-108,2.72q-27-1.32-53.87-4.34c-17.91-1.93-35.74-4.5-53.5-7.35s-35.43-6.24-53-9.81-35.11-7.61-52.56-11.77-34.8-8.61-52.12-13.16-34.56-9.23-51.78-14c-34.44-9.4-68.75-19-103.25-27-17.26-4-34.57-7.5-52-9.87q-13-1.82-26.09-2.43c-4.34-.17-8.69-.25-13-.14s-8.62.43-12.89.9a92.12,92.12,0,0,0-24.74,6.13,61.2,61.2,0,0,0-20.94,14.13,70.06,70.06,0,0,0-13.91,21.79,106,106,0,0,0-4.28,12.55l-.84,3.22c-.28,1.08-.49,2.18-.74,3.26C1943.37,1000.65,1943,1002.86,1942.58,1005.05Z" transform="translate(-133.32 -383.72)"/></g></g></svg>