<svg id="logo-signature" xmlns="http://www.w3.org/2000/svg" viewBox="0 0 1846.49 280.27">
    <g id="signature">
        <path id="first-name"
            d="M556.5,1055.62c-3.56-2.75-6.5-2.75-9.38.74a9.94,9.94,0,0,1-4.12,2.73c-8.82,3.23-17.72,6.25-26.55,9.46-5,1.83-8.85,1.16-11.75-3.23-2.66-4-5.56-3.85-9.54-2.34-10.44,4-20.75,8.36-31.91,10.19-5.13.84-9.12,0-11.86-4.78a102.34,102.34,0,0,0-7.51-11.86c-1-1.31-3.86-2.41-5.34-1.93-8.47,2.72-16.87,5.72-25.1,9.1-5,2.06-9.55,5.45-14.61,7.42-12.22,4.74-19.27-3.9-21.88-12.92-.67-2.29,1.44-5.49,2.52-8.16,1.16-2.85,2.91-5.49,3.82-8.4a5.19,5.19,0,0,0-1.08-4.46c-.63-.63-3.08-.22-4.16.52-5.23,3.56-10.12,7.61-15.4,11.08-5.1,3.35-10.57,6.14-15.79,9.31-2.71,1.64-5.22,3.6-7.86,5.34-3.73,2.46-7.45,4.92-11.27,7.23-3.26,2-6.63,3.8-10,5.58-2.84,1.49-5.88,2.61-8.63,4.24-4.89,2.89-9.55,6.16-14.44,9-2.76,1.63-5.8,2.8-8.71,4.17-.28.13-.74.07-.88.27-5.27,7.39-15.33,6.82-21.4,12.85-3.73,3.7-8.36,4.94-13.4,5.42-1.61.15-3.95.55-4.58,1.63-2.38,4.07-6.37,4.15-10.14,5.4-4.46,1.49-8.55,4.08-12.8,6.19a9.93,9.93,0,0,1-2.89,1.34c-4,.51-7.06,1.9-8.23,6.2a4.37,4.37,0,0,1-2.41,2.68c-5.38,1.69-10.77,3.71-16.32,4.39-3.76.46-6.5,1.51-8.5,4.53a13.54,13.54,0,0,1-10.63,6.52,15.55,15.55,0,0,0-6,2.21c-8.22,4.73-16.76,8.43-26.37,9.11-1.37.1-3,.24-4,1-7.83,6-18.19,4.85-26.55,9.45-2.89,1.59-6.36,2.29-9.65,3-6.46,1.42-14.38-4.42-15-10.93a5.21,5.21,0,0,1,.57-2.66c5.72-11.57,14.33-20.69,24.82-27.95,9.73-6.73,19.87-12.86,29.72-19.42,7.81-5.22,15.35-10.85,23.22-16,5.93-3.86,12.26-7.1,18.27-10.84,8.63-5.37,17.08-11,25.72-16.41,6.79-4.22,13.76-8.17,20.62-12.28,4.22-2.53,8.3-5.33,12.62-7.66,9.89-5.32,19.94-10.33,29.84-15.64,8.14-4.37,16.19-8.93,24.18-13.57,1-.59,1.49-2.16,2.21-3.28-1.24-.71-2.44-2-3.71-2-6.74-.42-13.5-.55-20.25-.79-5.92-.21-10.24-1.7-12.57-8.43-3.09-9-3-11.33,5.5-16,19.66-10.84,40.21-19.24,62.23-24.23,10.57-2.39,20.75-6.59,31-10.17,6.06-2.11,11.91-3.88,18.5-1.79,2,.64,5-.7,7.12-1.91,5.12-2.93,10.19-2.64,15-.06,5.4,2.87,9.72,7,9.13,13.8-.2,2.27-1.11,5.07-2.7,6.53-6.33,5.8-13,11.28-19.71,16.62-1.47,1.16-3.77,1.28-5.69,1.87-.19-2.22-.79-4.51-.46-6.66.28-1.9,1.89-3.58,2.34-5.5s1.06-5,.07-5.94a9.2,9.2,0,0,0-6.65-1.82c-4.1.55-8.06,2.06-12.11,3.07-13.44,3.37-26.94,6.52-40.32,10.13-4.57,1.24-8.85,3.56-13.26,5.39-2.39,1-4.86,1.82-7.14,3-1.09.57-1.83,1.81-2.72,2.75,1.15.87,2.19,2.15,3.48,2.49s2.72-.2,4-.64c7.82-2.71,15.67-3.34,23.54-.33a11,11,0,0,1,4.31,2.52c4.68,5.34,10.53,6.44,17.24,5.73,8.57-.9,17.18-1.39,25.76-2.09,10.91-.89,21.81-1.94,32.72-2.69,7.21-.49,11.27-5.7,16.26-9.79,6.37-5.22,13.27-9.78,19.84-14.76,3.66-2.78,7.13-5.81,10.64-8.79,2-1.67,3.72-3.62,5.79-5.14,3.79-2.79,6.88-2,9.12,2,2.56,4.63.53,10.49-3.86,13.34-2.29,1.49-3.61,4.4-5.63,6.39-3.19,3.13-6.72,5.93-9.88,9.08-1.06,1.07-2.3,3.09-1.94,4.14s2.6,2.14,4,2.18c9.84.25,19.69.44,29.53.23,11.42-.24,22.83-.85,34.24-1.42,7.08-.35,14.14-1,21.22-1.36,8.14-.4,16.3-.54,24.44-.9,12.77-.57,25.54-1.39,38.31-1.82,17.08-.56,34.16-.88,51.25-1.25,9.34-.2,18.59-.65,27.95,1.54,6.25,1.46,13.09.68,19.65.45,3.88-.13,6.08,1.38,7.49,4.79,2.82,6.8,2.5,12.8-1.59,16.29a20.71,20.71,0,0,1-7.54,4.1c-6,1.75-10.93,8.26-18.43,4.71-.57-.27-2.11,1-2.93,1.87-1.23,1.26-1.94,3.46-3.38,4.06-5.92,2.47-12,4.59-18.08,6.65-7.13,2.41-14.33,4.64-21.51,6.92-8.76,2.78-17.59,5.38-26.28,8.4-3,1-5.65,3.26-8.57,4.69q-6.32,3.1-12.81,5.82c-6.63,2.77-13.4,5.23-20,8.11-5.12,2.25-10.11,2.41-12.5-.14-3.14-3.35-3.9-10.71-1.58-15.11A12.1,12.1,0,0,0,556.5,1055.62Zm-434.27,95.11.85.8c6.85-1.52,13.71-3,20.55-4.59.71-.17,1.26-.9,2-1.19,3.37-1.43,6.72-2.9,10.15-4.14,2.16-.77,4.57-.91,6.67-1.8,8.21-3.46,16.31-7.15,24.49-10.68,14.67-6.35,29.51-12.34,44-19.12,5.14-2.4,9.78-5.76,15.62-6.39.57-.06,1.05-.65,1.62-.87,14.36-5.53,26.51-15.92,42-19,1.27-.26,2.37-1.34,3.55-2,4.08-2.44,8.14-4.93,12.26-7.3,6.71-3.87,13.87-7.1,20.07-11.66,5.24-3.85,9.92-8.22,16.56-9.61,1.75-.36,4-1.12,4.85-2.44,3.49-5.6,9.83-6.64,14.73-9.93,8.7-5.84,17.47-11.59,25.95-17.74,3.68-2.67,3-5.29-1.36-6.26a11.1,11.1,0,0,0-7,.86c-3.53,1.84-6.57,2.12-10,0a16.53,16.53,0,0,0-13.3-2.36,16.73,16.73,0,0,1-6.44.49c-9.22-1.42-16.42,2.74-23.46,7.8-4.87,3.51-9.7,7.2-15,10-8.78,4.58-18,8.34-26.88,12.7-6.33,3.1-12.51,6.51-18.61,10-2.1,1.21-3.6,3.43-5.67,4.7-10.24,6.27-20.68,12.22-30.87,18.58-11.86,7.42-23.52,15.15-35.3,22.72a11.67,11.67,0,0,1-2.56,1c-7.39,2.46-14.42,5.48-19.65,11.64a7.71,7.71,0,0,1-3.85,2.43c-6.93,1.58-11.9,5.94-16.71,10.79-1.92,1.94-4.51,3.21-6.77,4.81-6.54,4.65-13.12,9.24-19.56,14C123.85,1147.78,123.17,1149.43,122.23,1150.73Zm480.69-110.65c2.67-.46,4.75-.48,6.55-1.2,4.28-1.7,8.29-4.16,12.65-5.57,10.84-3.49,21.83-6.49,32.72-9.84a173.84,173.84,0,0,0,17.45-6.07c1.61-.68,2.32-3.45,3.44-5.27-1.79-.86-3.54-2.34-5.37-2.45-3.51-.2-7.06.47-10.59.61-11,.45-21.92,1.13-32.88,1.12-7.95,0-15.9-.95-23.85-1.47a68.35,68.35,0,0,0-8.68-.41c-5.59.38-11.2.85-16.73,1.76-9.68,1.6-19.37-4.51-29,.19-.86.41-2.14.06-3.21-.08-5.82-.73-11.58,2.48-17.47.29-.66-.25-1.68.71-2.58.84-6,.93-12.06,2.51-18.09,2.47-6.3,0-13.29,2.9-16.89,8-2.6,3.68-6.15,6.69-9.23,10-4.27,4.64-8.7,9.14-12.65,14-2,2.51-.89,5.28,2.39,5.12a41,41,0,0,0,11.43-2.57c3.45-1.22,6.61-3.28,9.93-4.89,3.15-1.53,6.48-2.72,9.49-4.47,8.24-4.81,16.08-10.39,24.59-14.62,11.22-5.58,11.62-5.24,17.17,6,2.12,4.33,4.8,5,8.94,3.6,10.65-3.72,21.35-6.66,32.91-6.61,5.54,0,9,1.56,12,5.83C598.84,1036.67,601.1,1038.31,602.92,1040.08Zm-159.29-24.71-.07-1.09a8.87,8.87,0,0,0-1.84-.11c-10.68,1.6-20.39,4.84-26.13,15.08-.88,1.56-2.36,2.78-3.52,4.2-2.52,3.08-5.21,6-7.4,9.35-.77,1.16-.95,3.7-.2,4.62s3,.85,4.64.85a7.73,7.73,0,0,0,3-1c8-3.85,16-7.8,24.06-11.58,7.47-3.52,15.17-6.66,21-12.84a27.32,27.32,0,0,0,2.86-4.55c-2-1.07-3.82-2.81-5.87-3.07C450.72,1014.75,447.15,1015.26,443.63,1015.37Z"
            transform="translate(-86.18 -914.8)" />
        <path id="last-name"
            d="M1492.4,1030.17c-6.84-.93-11.16,2.53-15.92,4.51-1.72.71-3.51,1.23-5.26,1.86-5.73,2.06-12.21,2.92-14.71,9.9a5.27,5.27,0,0,1-2.65,2.71c-9,3.79-17.21,1.18-22.08-7.14-1.48-2.53-2.67-4.23-5.71-2.22a2.42,2.42,0,0,1-2.11.27c-4-2.61-5.41-.71-7.16,3-1.89,3.94-5.68,6.11-10.19,6.93a12.31,12.31,0,0,0-4.95,2.48c-5.69,4.36-9.9,2.89-12.71-3.61-3.74-8.68-1.52-16.5,2-24.39,1.08-2.39,2-4.86,3.06-7.56-1.41-.18-2-.44-2.24-.26-3.9,2.55-7.66,5.31-11.67,7.67-1.68,1-3.86,1.08-5.8,1.63-3.75,1-8,1.38-7.53,7.19.11,1.41-1.66,3.5-3.11,4.38-7.13,4.31-14.52,8.19-21.68,12.47-5.65,3.38-10.93,7.38-16.66,10.59-5.26,3-10.89,5.24-16.38,7.79a4.16,4.16,0,0,1-1.71.35c-2.51,0-9.67-6.48-10-9-.67-5,1.75-8.48,6.61-10.53,6-2.54,11.83-5.54,17.78-8.22,3.16-1.42,6.68-2.17,9.6-4,4.55-2.77,8.77-6.11,13-9.31,2.25-1.68,4.36-3.56,6.48-5.41.24-.2.13-.8.21-1.45-6.07-1.75-10.37,2.5-15,4.61-4.12,1.85-8.33,4.15-10.58,8.9-.58,1.22-4.15,1.72-6.18,1.41-3.15-.48-5-.91-7.73,2.3-2.39,2.86-7.45,3.53-11.38,5-5.28,2.05-9.86,4.5-12.68,10.09-1.31,2.6-5.18,4-8,5.76a97.34,97.34,0,0,1-9.6,5.74,151.38,151.38,0,0,1-15.24,6.65,29,29,0,0,0-15,12.4c-1.46,2.29-3.35,5.08-5.67,5.91-6.5,2.32-10.42,7.71-15.61,11.54-4.87,3.58-10.07,6.69-15.1,10-.72.48-1.72,1.09-1.85,1.78-1.06,5.3-6.36,4.58-9.38,7-6.92,5.45-14.21,10.69-19.56,17.77-3.63,4.79-7.12,9.55-13.12,11.11-8.17,2.13-14.52,7.41-21.56,11.53a4.15,4.15,0,0,0-1.81,2.35c-.72,3.28-2.91,3.88-5.85,4.1-4.58.34-7.15,3.2-7.09,7.77,0,3.91-2.88,5.27-5.41,6.83-7,4.3-14.12,8.4-21.19,12.57-2.55,1.51-4.65,1.74-5.91-1.66a8.41,8.41,0,0,0-2.23-3.13c-3.9-3.52-4.59-6.86-1.78-11.25a75.65,75.65,0,0,1,6.28-8.49c8.14-9.42,16-18.94,22.33-29.83,4.56-7.83,11.63-14.18,17.35-21.37,3.46-4.35,6.1-9.38,9.76-13.52,5.49-6.19,11.63-11.8,17.36-17.8,2.89-3,5.49-6.32,8.19-9.52.56-.67.8-1.62,1.41-2.23q10.21-10.29,20.52-20.5c7.77-7.7,15.6-15.33,23.33-23a15.55,15.55,0,0,0,2-3.3c-4.08-2-13,.51-14.86,4.36-2,4.31-5.22,5.33-9.61,5.31-4,0-8.23,0-10.91,4.29-.66,1.05-3.47,1.86-4.62,1.32-6-2.78-9.62,1.23-13.07,4.54-2.53,2.42-5.14,2.79-8.26,3.22a13.59,13.59,0,0,0-7.26,3,30.26,30.26,0,0,1-14.92,7.94,5.32,5.32,0,0,0-2.74,1.15c-4.3,4.77-10.3,5.33-16,6.56-1.32.28-3.34.18-4.19-.63-4.9-4.66-9.47-9.66-9.8-17-.16-3.57-1.57-4.6-5-3.49-4.54,1.45-9.16,2.65-13.66,4.18a7,7,0,0,0-3.39,2.5c-5.18,7.9-20,14.62-28.72,12.73-3.57-.77-2.76-4-3.19-6.47-.79-4.51-1.55-9-2.49-14.58-5.48,2.77-10.42,4.58-14.57,7.51-7,4.94-14.56,6-22.64,4.92-1.56-.21-3.08-1.5-4.36-2.59-1.1-.93-1.67-2.49-2.77-3.42-6.32-5.33-7.11-6.35-12.79-2.15-1.69,1.25-4.09,1.49-6,2.47a58.69,58.69,0,0,0-7,4.09c-1.91,1.3-3.39,3.45-5.44,4.28-3.27,1.32-6.73,1.92-8.47,5.62-.36.79-2,1.09-3.06,1.41-1.41.41-3.21.17-4.25,1-5.24,4.06-10.65,2.17-15.79.35a11.88,11.88,0,0,1-6-5.19c-1.42-2.7-2.4-2.41-4.71-1.41-11.86,5.12-23.73,10.25-35.8,14.85-3.12,1.19-7.07,1-10.48.48-7.77-1.27-16.2-1.69-23-5.15-12.35-6.28-19.23-17.27-19.22-31.61,0-5.48.45-10.54,5.08-15.19s6.76-11.61,10.93-16.81c3.3-4.12,8-7.16,12.11-10.58a85.63,85.63,0,0,1,9.4-7.22c5.48-3.37,11.36-6.09,16.81-9.49,6-3.73,11.53-8.1,17.47-11.87,7.42-4.71,15-9.1,22.6-13.61.75-.45,1.8-.63,2.3-1.25,1.35-1.69,2.48-3.55,3.69-5.33-2-.66-4.1-1.86-6.17-1.89-10.22-.12-18.56,4.4-25.93,11.11-1.29,1.17-2.72,2.85-4.22,3-5.57.55-8,4.91-11.33,8.34-1.71,1.78-3.55,3.44-5.4,5.07-8.11,7.14-16.11,14.42-24.42,21.31-8.69,7.2-17.76,14-26.56,21-8.64,7-17.13,14.12-25.76,21.1-1.8,1.45-4.06,2.34-5.94,3.71-5.69,4.15-11.2,8.55-17,12.6-3.67,2.57-7.84,4.45-11.46,7.08s-6.76,5.93-10.26,8.74c-3.18,2.55-6.5,4.92-9.87,7.21s-7.2,4.47-10.69,6.87c-13.28,9.14-26.13,19-39.94,27.25-6.07,3.63-11.79,7.08-16.78,12.16-5.74,5.84-13.33,3.88-15.7-3.68a6.71,6.71,0,0,1,.6-5.27,60.63,60.63,0,0,1,8.48-9.48q16.93-15,34.24-29.5c3.34-2.81,7.31-4.86,10.85-7.45,11.82-8.65,23.5-17.49,35.39-26Q780,1029.19,801.89,1014c12-8.37,24.15-16.51,36.16-24.87,5.9-4.09,12.54-7.63,17.17-12.9s11-10.47,11.7-18.5c.12-1.31-1.35-3.73-2.5-4-5.45-1.39-11-3.6-16.7-.59a9.81,9.81,0,0,1-5.14,1c-13.83-1.14-24.52,6.63-35.9,12.45-3,1.54-6.2,2.84-8.89,4.82a9.71,9.71,0,0,0-3.7,5.5c-.2,1.11,2.23,2.79,3.61,4.06a40.69,40.69,0,0,0,3.72,2.76c-.49.66-.71,1.11-.81,1.08-6.06-1.5-12.24-2.69-18.1-4.78-1.84-.65-3.79-3.64-3.89-5.65-.08-1.5,2.46-4,4.3-4.58,6.36-2.07,8.81-8,12.55-12.42,4.61-5.39,10.21-8.49,16.26-11.61,17.2-8.87,35.63-10.22,54.44-9.78,4.8.11,9.21,1.08,13,4.45a14.85,14.85,0,0,0,14.24,3.66c4.39-1,9.21-.27,13.83-.4a5.18,5.18,0,0,0,2.92-.79c9.63-7.76,21-12.23,32.21-16.92,12.26-5.14,24.63-10.33,38.24-11.15a11.41,11.41,0,0,1,10.61,5c2.16,3.09.5,11.16-2.67,14.48-2.22,2.33-4.94,4.16-7.19,6.45-1,1.06-1.5,2.69-2.22,4.06,1.34.59,2.68,1.68,4,1.7,10,.1,19.94-.2,29.9,0,11.87.24,23.73.67,35.57,1.36,10.07.58,20.11,1.69,30.17,2.47,1.73.13,3.5-.35,5.26-.36,6,0,12,.19,17.92,0,11.56-.26,23.13-.52,34.67-1.2,2.23-.13,4.33-2.2,6.52-3.33,1.93-1,3.81-2.29,5.87-2.77,2.53-.59,4.3.46,5.26,3.33.58,1.72,2.4,4,4,4.26a179.2,179.2,0,0,0,23.16,2.81c12.58.46,25.2,0,37.79.25,10.26.23,20.5,1.11,30.75,1.45,11.73.39,23.47.49,35.2.77,3.67.09,7.34.39,11,.52,4.86.17,8.64-1.83,12-5.39a203.09,203.09,0,0,1,14.58-14.47c4-3.51,8.59-1.21,9.33,4.11.59,4.16.56,7.93-2,11.73-2.15,3.19-.87,4.62,2.89,4.82,10.66.54,21.31,1.42,32,1.83,16.55.65,33.11,1,49.66,1.55,3.78.13,7.54,1.16,11.32,1.2,7.63.08,15.33.35,22.85-.61,4.29-.54,8.58-2.87,12.37-5.22,6.66-4.13,12.74-9.23,19.47-13.23,3.26-1.94,7.58-3.37,11.2-3,2.46.25,4.89,3.82,6.68,6.37,1.49,2.11.22,4-2,5.42a7.23,7.23,0,0,0-2.44,3.07c-1.59,3.45-4.42,4.5-7.9,4.34-4.23-.18-6.73,1.45-6.77,6.62,4.19.32,8.34.52,12.47,1,11.2,1.16,22.38,2.41,33.57,3.65,1.15.13,2.34.81,3.42.64,14.57-2.35,28.93.47,43.36,1.63,1.89.15,3.8,0,5.7.08s4.3-.39,6.11.3c12.25,4.69,25.1,3.12,37.71,3.92,1,.07,2.24-.25,3,.19,7.51,4.06,15.82,2.4,23.75,3.39q22.18,2.79,44.39,5.31c4.07.46,8.2.34,12.29.66,14.58,1.14,29.17,2.21,43.73,3.59,19.83,1.88,39.66,3.71,59.51.54a227.43,227.43,0,0,1,61.22-1.62c10.92,1.2,21.95,1.48,32.85,2.82a209.22,209.22,0,0,1,23.71,4.7c1.81.43,3.74,2.33,4.69,4.06,4.06,7.41,1,13.47-7.13,15-4,.75-7.93,2.2-12,2.8-14.65,2.19-29.39,2.17-43.76-1.23-5.4-1.28-11.17-1.08-15.85-2.73-4.94-1.74-8-.19-12.21.33-6.77.82-13.89-1.23-20.87-2-1.69-.19-3.39-.34-5.09-.4-.71,0-1.56.52-2.14.3-11.13-4.33-22.27-1.16-33.44-.41-4.4.29-6.8,2.31-8.5,5.76a4.13,4.13,0,0,0,.09,3.51c1.57,2.31,3.7,4.23,5.35,6.48,3.72,5.08,1.08,10.63-5.25,11.22-2.32.22-4.69.18-7,.61-1.14.22-2.78,1-3.1,1.91a6.36,6.36,0,0,1-9,3.9c-6.41-3-11.87-.45-17.8.78-3.94.83-8.11.55-12.17.75-.72,0-1.91-.28-2.09,0-3.41,5.79-9.51,3.44-14.32,4.63-9.87,2.45-19.94,4.09-29.85,6.37a127.55,127.55,0,0,0-14,4.36c-7,2.46-13.85,5.38-20.93,7.54-3.37,1-7.26.26-10.7,1.15-6,1.54-11.76,3.69-17.59,5.71a8.82,8.82,0,0,0-3.3,2.1c-3.86,3.94-8.33,4.27-13.67,4-3.43-.15-7.28,2.46-10.42,4.59-3.31,2.25-5.8,4.77-10.55,4.85-3.51.07-8.57,1.1-9.84,6.4-.17.74-2.12,1.84-2.41,1.63-2.7-2-4.46-.91-6.29,1.3a3.52,3.52,0,0,1-2.8.9c-4.63-.72-7.76,1.49-10.81,4.6-1.31,1.34-3.49,1.86-5.32,2.65-2.09.9-5.27,1.1-6.15,2.65-2.94,5.15-8.36,4.58-12.63,6.62-2.6,1.23-5,2.83-7.52,4.26-1.46.84-2.94,1.63-4.38,2.5q-5.25,3.12-10.45,6.31c-.81.5-1.65,1.77-2.27,1.65-3.87-.74-4.37,1.43-6.27,4.3-2,3-7.66,3.74-11.75,5.35-1.6.63-3.31,1-4.94,1.48-1.19.39-2.34,1.22-3.52,1.23-2.4,0-3.41.58-3.18,3.36.09,1.08-1.75,2.67-3.05,3.43-3.12,1.84-6.41,3.41-9.7,4.94-4.2,2-8.5,3.69-12.68,5.67-2.23,1-4.26,2.54-6.48,3.63-6.38,3.13-12.8,6.16-19.22,9.22-2.77,1.32-5.54,2.68-8.36,3.9a21.13,21.13,0,0,1-5.79,2.06c-3.33.36-8.36,1.52-9.74-.12-2.88-3.43-4.16-8.52-1.43-13.18a51.55,51.55,0,0,1,6.15-9.08c8.85-9.62,18-19,27-28.49.8-.84,1.26-2,2.1-2.8,2.69-2.49,5.46-4.9,8.26-7.27.75-.63,1.92-.82,2.58-1.51,6.07-6.28,12.65-12.18,17.9-19.09,4.77-6.28,8.08-13.68,12-20.6,1.28-2.26,2.54-4.53,3.73-6.83,4.32-8.41,8.25-17,13-25.17,2.78-4.73,7-8.63,10.41-13A34.58,34.58,0,0,0,1492.4,1030.17Zm-62,116c.16.37.31.75.46,1.12,2-.43,4.19-.52,6-1.34,7.13-3.16,14.16-6.56,21.22-9.88,6.49-3,13-6,19.43-9.19,5.46-2.72,10.77-5.73,16.16-8.58q14.32-7.56,28.67-15c5.84-3,11.62-6.22,17.65-8.83,7-3,14.28-5.17,21.19-8.27,7.5-3.35,14.65-7.44,22.07-11,1.3-.61,3.18,0,5.09,0a42.22,42.22,0,0,1,4.89-2.52c8.71-3.32,17.48-6.51,26.21-9.79,2.32-.86,4.52-2.12,6.89-2.73,5.06-1.33,10.26-2.15,15.3-3.54,6.34-1.76,12.52-4.12,18.89-5.77s12.86-2.61,19.26-4.09,12.43-3.34,18.7-4.77c5.68-1.29,11.47-2.11,17.16-3.35,7.44-1.63,14.81-3.53,22.23-5.21,3.29-.74,6.75-.89,9.89-2a6.13,6.13,0,0,0,3.31-4c1-5.21,1.48-10.52,2.1-15.8.12-1.05.4-2.34-.06-3.15a9.11,9.11,0,0,0-9.35-5.09c-2.46.17-5-1-7.52-1.6a26.79,26.79,0,0,0-3.77-.9c-3.9-.32-7.8-.48-11.71-.71-7.5-.45-14.88-1-22.34-2.85-9.36-2.33-19.2-2.72-28.92-4,.29,1,.64,2.33,1.33,4.8-2.08-.83-3.74-1-4.28-1.8-1.73-2.73-3.95-2.29-6.55-2a102.83,102.83,0,0,1-12.28.71c-.81,0-1.56-1.45-2.46-2.07-1.2-.83-2.46-2-3.79-2.14-3.14-.32-6.34.06-9.49-.15-5.63-.36-11.36-1.83-16.84-1.14a21.87,21.87,0,0,1-11.37-1.24,22.28,22.28,0,0,0-10-1.77c-7.62.48-15.32-.3-23-.59a13.44,13.44,0,0,1-2.59-.35c-5.27-1.27-10.5-2.68-15.8-3.79-1.75-.37-3.65,0-5.48,0a27.3,27.3,0,0,0,1.46,5.06c2.66,5.28-.24,12.11-6,14.34-2.22.87-5.32,2.15-5.92,4-1.63,4.8-5.18,7.47-8.49,10.82-5.9,6-11,12.76-16.33,19.33-4.42,5.48-8.73,11.06-12.84,16.78-3.48,4.85-6.59,10-9.9,14.92-.4.59-1.2.92-1.57,1.52a31.23,31.23,0,0,0-2.52,4.7c-2.37,6-4.1,12.4-7.07,18.13-2.8,5.39-8,9.12-10.33,15.24-3.17,8.43-11.31,13.15-17,19.76a5.57,5.57,0,0,1-2.12,1.55C1439.55,1131.4,1436.58,1140.32,1430.43,1146.2Zm-577-104.49c-2,13.35,7.34,23.45,18.83,22.29a155,155,0,0,0,36.26-7.79c10.77-3.81,21.16-7.14,29.46-16.31,7.29-8.06,17-14,26.09-20.31,4.64-3.25,10.17-5.2,15.17-8,7.44-4.09,14.66-8.59,22.19-12.5s15.29-7.23,22.92-10.89c7.19-3.45,7.16-3.5,9.62,4,0,.13.11.27.15.41,1.19,3.85.07,5.3-3.83,6.1a21.71,21.71,0,0,0-6.13,2.75c-3.14,1.79-6.18,3.76-9.22,5.72-1.46.94-2.86,2-4.23,3-2.07,1.6-3.93,3.55-6.16,4.86-5.31,3.12-11,5.69-16.14,9a39.17,39.17,0,0,0-8.15,7.56c-.69.79.12,2.87.24,4.36,1.36-.25,2.94-.14,4-.82q13.65-8.45,27.13-17.19c2.36-1.53,4.1-1.53,6.24.41,6.44,5.84,6.62,7.06,2.42,15.27-.67,1.31-.19,3.2-.24,4.82a29.32,29.32,0,0,0,5-.14c.91-.17,1.69-1.12,2.49-1.75,11-8.66,21.66-17.87,33.18-25.81,10.58-7.29,21.39-14.11,31-22.75,8.88-8,18.63-15,27.85-22.57,1.32-1.09,2.65-3.38,2.38-4.81-.22-1.1-2.84-2-4.54-2.49a23.44,23.44,0,0,0-6.09-.63c-6.3,0-12.62.52-18.9.17-15.8-.89-31.58-2.21-47.38-3.21-7.12-.45-14.25-.56-21.37-.8-9.22-.3-18.43-.63-27.64-.86-7.13-.17-14-1.33-21.45-.12a45.94,45.94,0,0,0-17.66,6.87c-9.16,5.76-18,12-27.07,18-4.26,2.8-8.76,5.24-13,8-7.44,4.93-14.57,10.35-22.19,15-12,7.32-24.88,13.52-32.18,26.55a5.66,5.66,0,0,1-2.32,2.6C854.07,1032.08,854.76,1037.9,853.39,1041.71Zm262.69-22.83c4.42,1.07,7.2,2.31,7.12,6.54a15.1,15.1,0,0,0,.79,4.28,15.51,15.51,0,0,1-1.79,12.68c-.73,1.21-.66,2.91-1,4.38,1.49.29,3.22,1.22,4.42.76,5.41-2.1,10.71-4.5,16-7,4.37-2,8.43-4.87,12.95-6.35,9.82-3.22,20-5.41,29.76-8.76a242.67,242.67,0,0,0,23.23-9.88c4.24-2,8.07-4.78,12.26-6.87,9.77-4.87,19.75-9.34,29.45-14.35,6-3.1,12.32-6.11,17.12-10.63,4.31-4.06,8.42-8,13.77-10.55.8-.39,1.61-2.73,1.25-3.15-1-1.09-2.57-2.28-3.88-2.24-10.54.32-20.49-4.23-31.4-2.65-7.93,1.15-16.32-.89-24.51-1.43-4.52-.29-9-.52-13.56-.59-3.59-.06-7.19.34-10.78.25-4.24-.11-8.47-.49-12.7-.81-2.77-.21-5.53-.61-8.3-.79-10.74-.7-21.8-4.36-31.67,3.43-1.36,1.07-3.15,1.56-4.64,2.49a6.6,6.6,0,0,0-2.57,2.32c-4.73,9.89-15.13,13.9-22.16,21.44-5.22,5.6-11.45,10.26-17.3,15.25-2.7,2.31-5.67,4.3-8.33,6.63a29.05,29.05,0,0,0-4.59,5.13c-1.5,2.14-2.47,4.65-4,6.79-2.43,3.46-5.21,6.69-7.63,10.17-.75,1.08-1.55,3.27-1.06,3.81.89,1,2.7,1.39,4.17,1.54a5.9,5.9,0,0,0,3.34-.93c8.35-5,16.59-10.26,25-15.22C1108.71,1022.34,1112.82,1020.53,1116.08,1018.88Zm102.21,33.55c2.42-1,4.17-1.42,5.61-2.34,2.57-1.66,4.87-3.73,7.42-5.42,5.33-3.52,10.76-6.89,16.12-10.37s10.33-7.26,15.83-10.26c6.61-3.6,13.59-6.49,20.4-9.71,1.59-.75,3.1-1.69,4.71-2.38,5.94-2.56,11,1.2,10.37,7.62a54.06,54.06,0,0,0-.46,6.59c.07,3.64,1.8,5,5.11,3.67,8.37-3.32,17.12-5.73,24.58-11.21,2.7-2,6.34-2.69,9.53-4,1-.44,2-1,3.07-1.51,2.41-1.18,4.92-2.19,7.21-3.57,3-1.84,7-3.33,8.61-6.1,3.18-5.32,5.15-11.39,7.41-17.24,1.56-4,4.62-5.23,8.41-4.73,3.64.48,5,2.94,5.82,6.62,1,4.59,3.28,8.92,5.16,13.3a2.6,2.6,0,0,0,2.16,1.19c3.67-.78,7.58-1.22,10.86-2.87,4.39-2.22,8.26-5.48,12.4-8.21,5.74-3.79,11.59-7.43,17.25-11.34a4.63,4.63,0,0,0,1.64-3.58c0-.73-1.93-1.89-2.94-1.85a55.45,55.45,0,0,0-7.28,1.13c-1.36-.92-2.58-2.45-3.91-2.54-10.6-.74-21.26-.85-31.83-1.85-10.21-1-20.29-2-30.65-1.41-10.17.61-20.47-.57-30.71-1.21a19.06,19.06,0,0,0-16.15,6.46c-1.55,1.7-2.89,3-5.64,2.19-1-.29-3.26,1.3-3.85,2.55-2.52,5.32-6.89,8.49-11.53,11.77-8.7,6.15-17.11,12.72-25.38,19.43-3.71,3-6.74,6.85-10.16,10.23s-6.26,7.38-10.23,9.5c-8.22,4.38-11.68,13-18.21,18.72C1218.7,1050,1218.74,1050.71,1218.29,1052.43Zm239.31-29.17c.28.5.56,1,.83,1.5,29.73-8.77,58.2-20.13,82.53-41.41a25.48,25.48,0,0,0-3.61-1.75,42.5,42.5,0,0,0-22-.5c-1.3.3-2.81-.33-4.23-.5-4.82-.6-9.64-1.27-14.47-1.72-1.86-.17-3.79.45-5.64.26-6-.62-11.93-1.44-17.89-2.23-1.83-.24-3.63-.7-5.46-.95-2.11-.28-4.75-1.33-6.26-.47-4.28,2.42-8.06,5.69-12.09,8.55-3.67,2.6-7.44,5.05-11.09,7.68a29.64,29.64,0,0,0-4.25,3.74c-3.27,3.51-6.28,7.27-9.68,10.65-4.37,4.35-10.86,6.72-12.53,13.6-.1.43-.82.85-1.34,1-3.21,1-3.6,3.07-2.36,5.86,1.42,3.2,3.71,2.75,6.21,1.54,8.1-3.93,16.52-7.33,22.76-14.27a16.66,16.66,0,0,1,3.64-2.44c5.94-3.69,11.94-7.27,17.81-11.08,2.7-1.75,5.28-2.84,7.94-.3,4.09,3.92,5,11.93-.2,15.48C1463,1017.67,1460.44,1020.65,1457.6,1023.26ZM1161,1105.52c-3.89,6.09-7.45,12-11.39,17.65-1.34,1.92-3.74,3.07-5.45,4.78-2,2-4.54,3.91-5.41,6.37-1.2,3.42-2.12,6.58-5.43,8.65-.78.48-.77,2.23-1.13,3.4,1.31.24,2.74,1,3.88.62a16.27,16.27,0,0,0,4.56-2.6c5.41-3.73,10.85-7.43,16.14-11.32,8.59-6.31,17-12.82,25.63-19.14,2-1.46,4.31-2.4,6.35-3.76,5.74-3.82,12.29-6.13,17.13-11.7,4.64-5.33,10.82-9.31,16.26-14,2-1.68,3.78-3.55,5.66-5.33-2.79-.28-5.69-1.16-8.37-.72-6.49,1-12-.12-16-5.6-2.14-2.91-4.63-2.92-7.19-.9-4.07,3.21-10.79,3.59-11.41,10.59,0,.57-.87,1.19-1.47,1.58-7.75,5-12.29,12.77-17.32,20.09C1164.39,1106.63,1162.85,1107.68,1161,1105.52Zm93-57.12.57,1.51c6.65,2.27,9.64.76,11.44-6.79Zm-304-104.85c-.06-.79-.11-1.57-.16-2.36l-4.63.53c.14.64.22,1.82.41,1.84A42.67,42.67,0,0,0,949.94,943.55Z"
            transform="translate(-86.18 -914.8)" />
    </g>
</svg>